<svg width="39" height="89" viewBox="0 0 39 89" fill="none" xmlns="http://www.w3.org/2000/svg">
<path d="M2.07031 0C1.9323 1.72871 1.80118 3.45741 1.67697 5.18612C0.561593 20.7092 0.00263906 36.2322 0.000108719 51.7553L-3.09944e-05 52.6125L0.606457 53.2192C0.63141 53.2441 0.656365 53.2691 0.681322 53.294C11.6827 64.2955 23.0794 74.9016 34.8713 85.1126C36.1815 86.2471 37.4966 87.3768 38.8166 88.5016C37.6918 87.1816 36.5621 85.8665 35.4276 84.5563C25.2166 72.7644 14.6105 61.3677 3.60904 50.3663C3.58409 50.3414 3.55913 50.3164 3.53417 50.2915L4.14052 51.7553C4.13799 36.2322 3.57903 20.7092 2.46365 5.18612C2.33944 3.45741 2.20833 1.72871 2.07031 0Z" fill="#D6BC67"/>
</svg>
