<svg width="39" height="89" viewBox="0 0 39 89" fill="none" xmlns="http://www.w3.org/2000/svg">
<path d="M36.7461 0C36.8841 1.72871 37.0152 3.45741 37.1394 5.18612C38.2548 20.7092 38.8138 36.2322 38.8163 51.7553L38.8164 52.6125L38.2099 53.2192C38.185 53.2441 38.16 53.2691 38.1351 53.294C27.1337 64.2955 15.737 74.9016 3.9451 85.1126C2.63488 86.2471 1.31979 87.3768 -0.000179291 88.5016C1.12461 87.1816 2.25428 85.8665 3.38882 84.5563C13.5998 72.7644 24.2059 61.3677 35.2074 50.3663C35.2323 50.3414 35.2573 50.3164 35.2822 50.2915L34.6759 51.7553C34.6784 36.2322 35.2374 20.7092 36.3528 5.18612C36.477 3.45741 36.6081 1.72871 36.7461 0Z" fill="#D6BC67"/>
</svg>
