<svg width="50" height="112" viewBox="0 0 50 112" fill="none" xmlns="http://www.w3.org/2000/svg">
<path d="M46.4414 0C46.6158 2.1848 46.7815 4.3696 46.9385 6.5544C48.3482 26.173 49.0546 45.7916 49.0578 65.4102L49.058 66.4935L48.2915 67.2603C48.2599 67.2918 48.2284 67.3234 48.1969 67.3549C34.2929 81.2589 19.8894 94.6634 4.98634 107.568C3.33045 109.002 1.6684 110.43 0.000164032 111.851C1.42172 110.183 2.84943 108.521 4.28331 106.865C17.1882 91.9622 30.5927 77.5587 44.4967 63.6547C44.5282 63.6232 44.5598 63.5917 44.5913 63.5601L43.825 65.4102C43.8282 45.7916 44.5346 26.173 45.9443 6.5544C46.1013 4.3696 46.267 2.1848 46.4414 0Z" fill="#D6BC67"/>
</svg>
