<svg width="48" height="255" viewBox="0 0 48 255" fill="none" xmlns="http://www.w3.org/2000/svg">
<path d="M0.000232697 0C3.72768 2.67101 7.45094 5.34752 11.17 8.0295C14.1422 10.1729 17.1117 12.3197 20.0785 14.4701L20.3365 14.6571L20.3452 15.009C21.2734 52.5981 21.7375 90.1872 21.7375 127.776C21.7375 130.298 21.7354 132.819 21.7312 135.34L21.1483 133.903C29.6734 142.715 38.163 151.562 46.6172 160.443L47.1335 160.965L47.141 161.735C46.884 188.205 46.3968 214.675 45.6795 241.144C45.5553 245.728 45.4241 250.311 45.2861 254.895C45.1481 250.311 45.017 245.728 44.8928 241.144C44.1755 214.675 43.6883 188.205 43.4312 161.735L43.9551 163.027C35.33 154.312 26.7404 145.562 18.1862 136.778L17.6019 136.174L17.6033 135.34C17.5991 132.819 17.597 130.298 17.597 127.776C17.597 90.1872 18.0611 52.5981 18.9893 15.009L19.256 15.548C16.3989 13.2538 13.5445 10.9561 10.6927 8.65487C7.12439 5.7754 3.56021 2.89044 0.000232697 0Z" fill="#D6BC67"/>
</svg>
