<svg width="60" height="323" viewBox="0 0 60 323" fill="none" xmlns="http://www.w3.org/2000/svg">
<path d="M59.5787 0C54.8678 3.37572 50.1622 6.75838 45.4619 10.148C41.7056 12.8568 37.9526 15.5701 34.203 18.2879L33.877 18.5242L33.866 18.969C32.6929 66.4753 32.1064 113.982 32.1064 161.488C32.1064 164.675 32.109 167.861 32.1143 171.048L32.851 169.231C22.0767 180.369 11.3472 191.55 0.662526 202.774L0.00991106 203.434L0.000459671 204.407C0.325324 237.86 0.941041 271.313 1.84761 304.767C2.00459 310.559 2.1703 316.352 2.34473 322.145C2.51915 316.352 2.68486 310.559 2.84184 304.767C3.74841 271.313 4.36413 237.86 4.68899 204.407L4.02693 206.04C14.9276 195.025 25.7835 183.966 36.5946 172.864L37.333 172.101L37.3313 171.048C37.3365 167.861 37.3392 164.675 37.3392 161.488C37.3392 113.982 36.7526 66.4753 35.5796 18.969L35.2426 19.6501C38.8534 16.7506 42.461 13.8467 46.0651 10.9383C50.5749 7.29916 55.0794 3.65305 59.5787 0Z" fill="#D6BC67"/>
</svg>
