<svg width="50" height="112" viewBox="0 0 50 112" fill="none" xmlns="http://www.w3.org/2000/svg">
<path d="M2.61621 0C2.44178 2.1848 2.27608 4.3696 2.11909 6.5544C0.709438 26.173 0.0030117 45.7916 -0.000185966 65.4102L-0.000362635 66.4935L0.766139 67.2603C0.797675 67.2918 0.829214 67.3234 0.860756 67.3549C14.7647 81.2589 29.1683 94.6634 44.0713 107.568C45.7272 109.002 47.3892 110.43 49.0575 111.851C47.6359 110.183 46.2082 108.521 44.7743 106.865C31.8694 91.9622 18.4649 77.5587 4.56092 63.6547C4.52937 63.6232 4.49783 63.5917 4.46628 63.5601L5.23261 65.4102C5.22941 45.7916 4.52298 26.173 3.11333 6.5544C2.95634 4.3696 2.79064 2.1848 2.61621 0Z" fill="#D6BC67"/>
</svg>
