<svg width="48" height="255" viewBox="0 0 48 255" fill="none" xmlns="http://www.w3.org/2000/svg">
<path d="M47.1404 0C43.4129 2.67101 39.6897 5.34752 35.9706 8.0295C32.9984 10.1729 30.0289 12.3197 27.0621 14.4701L26.8041 14.6571L26.7955 15.009C25.8673 52.5981 25.4032 90.1872 25.4032 127.776C25.4032 130.298 25.4052 132.819 25.4094 135.34L25.9923 133.903C17.4673 142.715 8.97765 151.562 0.523464 160.443L0.00708771 160.965L-0.000390649 161.735C0.256656 188.205 0.743837 214.675 1.46115 241.144C1.58536 245.728 1.71648 250.311 1.85449 254.895C1.99251 250.311 2.12362 245.728 2.24783 241.144C2.96515 214.675 3.45233 188.205 3.70938 161.735L3.18552 163.027C11.8106 154.312 20.4002 145.562 28.9544 136.778L29.5387 136.174L29.5373 135.34C29.5415 132.819 29.5436 130.298 29.5436 127.776C29.5436 90.1872 29.0795 52.5981 28.1513 15.009L27.8846 15.548C30.7417 13.2538 33.5961 10.9561 36.4479 8.65487C40.0162 5.7754 43.5804 2.89044 47.1404 0Z" fill="#D6BC67"/>
</svg>
