<svg width="60" height="323" viewBox="0 0 60 323" fill="none" xmlns="http://www.w3.org/2000/svg">
<path d="M0.00044632 0C4.71132 3.37572 9.41691 6.75838 14.1172 10.148C17.8736 12.8568 21.6265 15.5701 25.3761 18.2879L25.7021 18.5242L25.7131 18.969C26.8862 66.4753 27.4727 113.982 27.4727 161.488C27.4727 164.675 27.4701 167.861 27.4648 171.048L26.7281 169.231C37.5024 180.369 48.2319 191.55 58.9166 202.774L59.5692 203.434L59.5786 204.407C59.2538 237.86 58.6381 271.313 57.7315 304.767C57.5745 310.559 57.4088 316.352 57.2344 322.145C57.0599 316.352 56.8942 310.559 56.7373 304.767C55.8307 271.313 55.215 237.86 54.8901 204.407L55.5522 206.04C44.6515 195.025 33.7956 183.966 22.9845 172.864L22.2461 172.101L22.2478 171.048C22.2426 167.861 22.2399 164.675 22.2399 161.488C22.2399 113.982 22.8265 66.4753 23.9995 18.969L24.3365 19.6501C20.7257 16.7506 17.1181 13.8467 13.514 10.9383C9.00421 7.29916 4.49968 3.65305 0.00044632 0Z" fill="#D6BC67"/>
</svg>
