<svg width="98" height="20" viewBox="0 0 98 20" fill="none" xmlns="http://www.w3.org/2000/svg">
<g clip-path="url(#clip0_1831_2605)">
<path d="M91.8838 11.806H91.8182H76.756H76.4659L76.3524 12.073L74.9931 15.2713L74.7338 15.8814H75.3968H90.1171C91.0653 15.8814 91.7108 16.8563 91.3357 17.7382L90.5606 19.5614H68.4629L71.6296 12.1113C72.671 9.6623 75.0659 8.07462 77.715 8.07462H90.4469H90.7371L90.8506 7.80756L92.1852 4.66762L92.4445 4.05746H91.7815H75.0531L76.5925 0.438599H94.0113C96.2248 0.438599 97.7243 2.712 96.8525 4.76262L94.6594 9.92181C94.182 11.0456 93.0943 11.7803 91.8838 11.806Z" stroke="white"/>
<path fill-rule="evenodd" clip-rule="evenodd" d="M4.29786 0.543701C3.22988 0.543442 2.26409 1.17498 1.84135 2.1495L0.108205 6.19548C-0.267098 7.07208 0.379984 8.04478 1.33868 8.04478H6.98211C7.24995 8.04478 7.49186 7.88592 7.59695 7.64111L8.15781 6.33559H2.21849L3.80646 2.63545L2.94419 2.23022H9.47975C9.7476 2.23022 9.98951 2.07136 10.0946 1.82657L10.6455 0.544482L4.29786 0.543701ZM18.8572 6.42831C18.4377 7.40855 17.4707 8.04478 16.4001 8.04478H10.4352C9.47733 8.04478 8.83093 7.07078 9.20725 6.19392L10.9402 2.15704C11.3603 1.17863 12.3265 0.543705 13.396 0.543705H19.3611C20.3191 0.543705 20.9653 1.51796 20.5889 2.39455L18.8572 6.42831ZM16.9054 5.9322L18.4937 2.23023H12.0807L12.9009 2.63545L11.3126 6.3356H16.2915C16.5589 6.3356 16.8005 6.17674 16.9054 5.93194V5.9322ZM24.086 19.2086H22.8181L25.3172 13.3932C25.2196 13.3932 22.5546 13.3937 22.5546 13.3937L23.2849 11.7075H30.9575L30.45 12.9018C30.3289 13.1872 29.9839 13.3937 29.6463 13.3937H27.4632L25.3172 18.4002C25.1072 18.8904 24.6226 19.2086 24.086 19.2086ZM49.1954 17.1229H48.5205L46.6849 17.1203L45.7733 19.2083H43.6651L46.8949 11.7075H48.9977L47.4758 15.2484L52.4703 11.8252C52.5819 11.7486 52.7144 11.7075 52.8502 11.7075H56.0118L50.4156 15.5734L52.9411 19.2086H50.6311L49.1954 17.1231V17.1229ZM45.1602 11.7075H42.9981L39.773 19.2086H41.347C41.6851 19.2086 42.0467 18.9856 42.1681 18.6998L44.0484 14.304L45.1602 11.7075ZM38.8374 19.2083H36.5854L35.6565 17.4992H31.6707L31.2832 18.4012C31.073 18.8909 30.5889 19.2083 30.0533 19.2083H28.7682L31.9907 11.7075H39.1579C40.117 11.7075 40.7642 12.6814 40.3875 13.558L38.9986 16.7919C38.8144 17.221 38.39 17.4994 37.9205 17.4994L38.8377 19.2086L38.8374 19.2083ZM39.5419 15.4926L38.3489 13.3937L32.4407 13.3989L33.2582 13.7921L32.3872 15.8312H36.8653C37.1335 15.8312 37.3756 15.6718 37.4805 15.4265L38.3486 13.3939L39.5419 15.4926ZM57.4467 14.823H62.293L61.8367 15.8816C61.7312 16.1256 61.49 16.284 61.2232 16.284H56.816L56.2909 17.4994H62.2104L61.6537 18.8039C61.5491 19.0491 61.3074 19.2086 61.0395 19.2086H54.4114C53.9326 19.2086 53.6096 18.7216 53.7975 18.2832L56.2718 12.5145C56.4819 12.0252 56.9649 11.7075 57.4998 11.7075H64.6981L64.1486 12.9896C64.0437 13.2344 63.8019 13.3932 63.5346 13.3932H57.0544L57.8897 13.7904L57.4467 14.823ZM22.2972 6.33432L24.7604 0.54527H23.4751C22.9402 0.54527 22.4567 0.862514 22.2463 1.35166L20.163 6.19315C19.7858 7.06987 20.4326 8.04478 21.3918 8.04478H26.8616C27.9344 8.04478 28.903 7.40743 29.3221 6.42574L31.8335 0.54527L30.5623 0.543707C30.0258 0.542926 29.5407 0.861471 29.3309 1.3527L27.3732 5.92878C27.2689 6.17518 27.0261 6.33536 26.7572 6.33536L22.2972 6.33432ZM44.3451 8.04478H43.077L45.5763 2.22945C45.4788 2.22945 42.8135 2.22997 42.8135 2.22997L43.5439 0.543705H51.2165L50.7091 1.73802C50.5879 2.02345 50.2428 2.22997 49.9053 2.22997H47.7221L45.5763 7.23641C45.3661 7.72653 44.8816 8.04478 44.3451 8.04478ZM67.6639 6.33566L68.5809 8.04452H66.3289L65.4 6.33539H61.4142L61.0267 7.23748C60.8165 7.72708 60.3325 8.04452 59.7968 8.04452H58.5118L61.734 0.543705H68.9012C69.8604 0.543705 70.5077 1.51767 70.1311 2.39423L68.7419 5.62809C68.5577 6.05727 68.1335 6.33566 67.6639 6.33566ZM68.0926 2.22992L69.2858 4.32888L68.0923 2.23016L67.2242 4.26273C67.1193 4.50804 66.8772 4.66743 66.6089 4.66743H62.1307L63.0018 2.62836L62.1842 2.23511L68.0926 2.22992ZM58.0081 3.6592H53.1504L53.5944 2.6266L52.7572 2.22945H59.2526C59.5207 2.22945 59.763 2.07059 59.8682 1.82578L60.4189 0.543705H53.2037C52.6675 0.543705 52.1833 0.861426 51.9728 1.35077L49.4928 7.11948C49.3044 7.55778 49.6281 8.04478 50.1081 8.04478H56.7516C57.0202 8.04478 57.2625 7.88539 57.3674 7.64008L57.9253 6.3356H51.9919L52.5182 5.12018H56.9358C57.2033 5.12018 57.4451 4.96185 57.5507 4.71783L58.0081 3.6592ZM32.5702 7.23734C32.3598 7.72685 31.8756 8.04478 31.3395 8.04478H30.0539L33.2781 0.545006L34.8889 0.543705C35.137 0.543705 35.3649 0.679624 35.4807 0.897564L38.0532 5.73102L39.9437 1.35167C40.1542 0.863714 40.6372 0.547091 41.1719 0.54657L42.4779 0.545006L39.4237 7.64145C39.3184 7.88595 39.0765 8.04478 38.8084 8.04478H37.4409C37.1932 8.04478 36.9658 7.90887 36.8498 7.69145L34.3718 3.04676L32.5696 7.23734H32.5702ZM17.6012 17.4994L18.1163 16.3001L18.1165 16.2998L14.1032 16.3001H13.6118C12.6536 16.3001 12.0065 15.3284 12.3808 14.4521L12.5807 13.9841L12.8606 13.3278C13.2797 12.3455 14.2492 11.7075 15.323 11.7075H22.1937L21.6453 12.9893C21.5405 13.2346 21.2981 13.3937 21.03 13.3937H13.9308L14.7716 13.799L14.4411 14.5714H18.9412C19.9005 14.5714 20.5479 15.5454 20.1712 16.422L19.6675 17.5944C19.2472 18.5733 18.2789 19.2086 17.2078 19.2086H10.3366L10.902 17.9014C11.0076 17.6574 11.249 17.4994 11.5164 17.4994H17.6012Z" fill="white"/>
</g>
<defs>
<clipPath id="clip0_1831_2605">
<rect width="97.5439" height="20" fill="white"/>
</clipPath>
</defs>
</svg>
