<svg width="140" height="19" viewBox="0 0 140 19" fill="none" xmlns="http://www.w3.org/2000/svg">
<path d="M76.2991 0.692383H98.3638V4.18154H79.8373V7.52321H98.3638V10.2752L97.5285 11.258H81.459L84.7515 14.6488H97.5285L98.3638 15.386V18.0396H82.8841L76.2991 11.5529V0.692383Z" fill="white"/>
<path d="M120.724 0.643555H101.804V4.1907H118.807L120.216 5.59933V8.44534L118.807 9.88272H101.804V13.4203H114.15L117.904 17.2256V18.147H123.82V17.6465L119.544 13.4203H121.903L123.82 11.5529V3.73926L120.724 0.643555Z" fill="white"/>
<path d="M135.314 11.0889V2.9873H132.576L131.741 3.87234V11.0889H135.314Z" fill="white"/>
<path d="M131.741 7.64551V15.7471H134.479L135.313 14.862V7.64551H131.741Z" fill="white"/>
<path d="M135.249 7.58094H127.147V10.3187L128.032 11.1533H135.249V7.58094Z" fill="white"/>
<path d="M131.806 11.1534H139.907V8.41566L139.022 7.58105H131.806V11.1534Z" fill="white"/>
<path fill-rule="evenodd" clip-rule="evenodd" d="M72.9309 3.84277V7.99707L71.5168 9.47949L72.9309 10.7822V17.251L72.0637 18.0703H50.9397V0.77832L69.7873 0.698242L72.9309 3.84277ZM54.425 11.1641V14.6006H69.4055V11.1641H54.425ZM54.3801 4.20215V7.57129H69.383V5.72949L67.9455 4.20215H54.3801Z" fill="white"/>
<path d="M22.1456 3.36443L21.2404 4.35955H3.68169V10.8762L7.43785 14.6776H22.1456V17.2571L21.2404 18.117H5.5824L0.106445 12.6411V0.739258H22.1456V3.36443Z" fill="white"/>
<path d="M26.3825 0.739258L25.5227 1.64453V5.76711L32.0781 12.2856H34.7416V18.0944H38.1912V8.81051L34.7416 8.81051H33.9044L28.9621 3.91492V0.739258L26.3825 0.739258Z" fill="white"/>
<path d="M47.5259 5.76726V0.739409L44.8066 0.73941L44.4349 1.08773L44.0865 1.47596V3.91507L39.1442 8.81066L34.7416 8.81051V12.2856L40.9705 12.2858L47.5259 5.76726Z" fill="white"/>
</svg>
