<svg width="32" height="32" viewBox="0 0 32 32" fill="none" xmlns="http://www.w3.org/2000/svg">
<mask id="mask0_753_3453" style="mask-type:luminance" maskUnits="userSpaceOnUse" x="0" y="0" width="32" height="32">
<path d="M32 0H0V32H32V0Z" fill="white"/>
</mask>
<g mask="url(#mask0_753_3453)">
<path d="M27.089 5.98962C25.049 5.06962 22.8623 4.38962 20.5757 4.00296C20.5553 3.99905 20.5342 4.00157 20.5154 4.01017C20.4965 4.01877 20.4807 4.03302 20.4703 4.05096C20.1903 4.54296 19.8783 5.18429 19.6597 5.69096C17.2345 5.32861 14.7689 5.32861 12.3437 5.69096C12.1001 5.12944 11.8255 4.58193 11.521 4.05096C11.5107 4.03281 11.4951 4.01822 11.4762 4.00917C11.4574 4.00012 11.4363 3.99702 11.4157 4.00029C9.13033 4.38696 6.94366 5.06696 4.90233 5.98829C4.88477 5.99566 4.86987 6.00822 4.85966 6.02429C0.710331 12.1243 -0.427003 18.0737 0.131664 23.9483C0.133219 23.9627 0.137685 23.9766 0.144791 23.9893C0.151897 24.0018 0.161493 24.0129 0.172997 24.0217C2.59485 25.7849 5.29611 27.1281 8.16366 27.995C8.18365 28.0011 8.20503 28.0011 8.22502 27.9949C8.24499 27.9887 8.26265 27.9767 8.27566 27.9603C8.89273 27.135 9.43953 26.2595 9.91033 25.343C9.91686 25.3305 9.92063 25.3166 9.92137 25.3025C9.92211 25.2885 9.91982 25.2743 9.91463 25.2611C9.90945 25.2481 9.9015 25.2361 9.89133 25.2263C9.88115 25.2165 9.86899 25.209 9.85566 25.2043C8.99434 24.8799 8.15978 24.4885 7.35966 24.0337C7.34529 24.0254 7.33317 24.0138 7.32441 23.9997C7.31565 23.9857 7.3105 23.9697 7.30945 23.9531C7.30838 23.9366 7.31145 23.9201 7.31835 23.9051C7.32525 23.8901 7.33578 23.877 7.34899 23.867C7.51699 23.743 7.68499 23.6137 7.84499 23.4843C7.85939 23.4727 7.87674 23.4653 7.89511 23.4629C7.91347 23.4606 7.93213 23.4634 7.94899 23.471C13.185 25.823 18.8557 25.823 24.0303 23.471C24.0473 23.4629 24.0661 23.4598 24.0847 23.4618C24.1034 23.4639 24.121 23.4713 24.1357 23.483C24.2957 23.6137 24.4623 23.743 24.6317 23.867C24.645 23.8767 24.6557 23.8897 24.6629 23.9046C24.6699 23.9195 24.6733 23.9359 24.6725 23.9525C24.6717 23.969 24.6669 23.985 24.6583 23.9991C24.6498 24.0134 24.6379 24.0251 24.6237 24.0337C23.8263 24.4923 22.997 24.8803 22.1263 25.203C22.113 25.2078 22.1007 25.2155 22.0906 25.2254C22.0805 25.2354 22.0725 25.2474 22.0673 25.2606C22.0621 25.2738 22.0598 25.2881 22.0606 25.3022C22.0614 25.3165 22.0651 25.3303 22.0717 25.343C22.5517 26.259 23.101 27.131 23.705 27.959C23.7175 27.9759 23.735 27.9886 23.7551 27.9954C23.7751 28.0021 23.7967 28.0023 23.817 27.9963C26.6894 27.1318 29.3951 25.7879 31.8197 24.0217C31.8315 24.0134 31.8414 24.0026 31.8487 23.9902C31.8561 23.9778 31.8607 23.9639 31.8623 23.9497C32.529 17.1577 30.745 11.2563 27.1303 6.02695C27.1214 6.00997 27.1067 5.99672 27.089 5.98962ZM10.693 20.371C9.11699 20.371 7.81699 18.9457 7.81699 17.1977C7.81699 15.4483 9.09166 14.0243 10.693 14.0243C12.3063 14.0243 13.5943 15.4603 13.569 17.1977C13.569 18.947 12.2943 20.371 10.693 20.371ZM21.3263 20.371C19.749 20.371 18.4503 18.9457 18.4503 17.1977C18.4503 15.4483 19.7237 14.0243 21.3263 14.0243C22.9397 14.0243 24.2277 15.4603 24.2023 17.1977C24.2023 18.947 22.941 20.371 21.3263 20.371Z" fill="white"/>
</g>
</svg>
