<svg width="16" height="16" viewBox="0 0 16 16" fill="none" xmlns="http://www.w3.org/2000/svg">
<path d="M8.01339 4.90625C6.29911 4.90625 4.93304 6.29911 4.93304 7.98661C4.93304 9.70089 6.29911 11.067 8.01339 11.067C9.70089 11.067 11.0938 9.70089 11.0938 7.98661C11.0938 6.29911 9.70089 4.90625 8.01339 4.90625ZM8.01339 9.99554C6.91518 9.99554 6.00446 9.11161 6.00446 7.98661C6.00446 6.88839 6.88839 6.00446 8.01339 6.00446C9.11161 6.00446 9.99554 6.88839 9.99554 7.98661C9.99554 9.11161 9.11161 9.99554 8.01339 9.99554ZM11.9241 4.79911C11.9241 4.39732 11.6027 4.07589 11.2009 4.07589C10.7991 4.07589 10.4777 4.39732 10.4777 4.79911C10.4777 5.20089 10.7991 5.52232 11.2009 5.52232C11.6027 5.52232 11.9241 5.20089 11.9241 4.79911ZM13.9598 5.52232C13.9063 4.55804 13.692 3.70089 12.9955 3.00446C12.2991 2.30804 11.442 2.09375 10.4777 2.04018C9.48661 1.98661 6.51339 1.98661 5.52232 2.04018C4.55804 2.09375 3.72768 2.30804 3.00446 3.00446C2.30804 3.70089 2.09375 4.55804 2.04018 5.52232C1.98661 6.51339 1.98661 9.48661 2.04018 10.4777C2.09375 11.442 2.30804 12.2723 3.00446 12.9955C3.72768 13.692 4.55804 13.9063 5.52232 13.9598C6.51339 14.0134 9.48661 14.0134 10.4777 13.9598C11.442 13.9063 12.2991 13.692 12.9955 12.9955C13.692 12.2723 13.9063 11.442 13.9598 10.4777C14.0134 9.48661 14.0134 6.51339 13.9598 5.52232ZM12.6741 11.5223C12.4866 12.058 12.058 12.4598 11.5491 12.6741C10.7455 12.9955 8.87054 12.9152 8.01339 12.9152C7.12946 12.9152 5.25446 12.9955 4.47768 12.6741C3.94196 12.4598 3.54018 12.058 3.32589 11.5223C3.00446 10.7455 3.08482 8.87054 3.08482 7.98661C3.08482 7.12946 3.00446 5.25446 3.32589 4.45089C3.54018 3.94196 3.94196 3.54018 4.47768 3.32589C5.25446 3.00446 7.12946 3.08482 8.01339 3.08482C8.87054 3.08482 10.7455 3.00446 11.5491 3.32589C12.058 3.51339 12.4598 3.94196 12.6741 4.45089C12.9955 5.25446 12.9152 7.12946 12.9152 7.98661C12.9152 8.87054 12.9955 10.7455 12.6741 11.5223Z" fill="white"/>
</svg>
