<svg width="24" height="24" viewBox="0 0 24 24" fill="none" xmlns="http://www.w3.org/2000/svg">
<path d="M19.7906 14.9299C17.7306 16.9799 14.7806 17.6099 12.1906 16.7999L7.48063 21.4999C7.14063 21.8499 6.47063 22.0599 5.99063 21.9899L3.81063 21.6899C3.09063 21.5899 2.42063 20.9099 2.31063 20.1899L2.01063 18.0099C1.94063 17.5299 2.17063 16.8599 2.50063 16.5199L7.20063 11.8199C6.40063 9.21995 7.02063 6.26995 9.08063 4.21995C12.0306 1.26995 16.8206 1.26995 19.7806 4.21995C22.7406 7.16995 22.7406 11.9799 19.7906 14.9299Z" stroke="white" stroke-width="1.5" stroke-miterlimit="10" stroke-linecap="round" stroke-linejoin="round"/>
<path d="M6.89062 17.49L9.19062 19.79" stroke="white" stroke-width="1.5" stroke-miterlimit="10" stroke-linecap="round" stroke-linejoin="round"/>
<path d="M14.5 11C15.3284 11 16 10.3284 16 9.5C16 8.67157 15.3284 8 14.5 8C13.6716 8 13 8.67157 13 9.5C13 10.3284 13.6716 11 14.5 11Z" stroke="white" stroke-width="1.5" stroke-linecap="round" stroke-linejoin="round"/>
</svg>
