<svg width="16" height="16" viewBox="0 0 16 16" fill="none" xmlns="http://www.w3.org/2000/svg">
<path d="M3.10099 2.07346C2.98974 2.11152 2.83166 2.18763 2.75262 2.24032C2.67357 2.29009 2.54477 2.40719 2.4628 2.49502C2.38375 2.58284 2.28129 2.73507 2.23445 2.83168C2.18761 2.92828 2.13492 3.10979 2.11443 3.24152C2.08515 3.44059 2.08515 3.50792 2.12614 3.69528C2.14956 3.81531 2.20811 3.99388 2.25495 4.09049C2.30178 4.1871 2.40717 4.33933 2.48914 4.42715C2.57404 4.51497 2.71749 4.635 2.81117 4.69062C2.90484 4.74625 3.06878 4.8165 3.17417 4.84285C3.27956 4.8692 3.43472 4.89262 3.51962 4.89262C3.60158 4.89555 3.7421 4.88091 3.82407 4.86334C3.90897 4.84578 4.05827 4.79308 4.15488 4.74624C4.25148 4.69941 4.38908 4.61158 4.46226 4.5501C4.53545 4.48863 4.64962 4.35396 4.71988 4.24857C4.79014 4.14611 4.87211 3.97632 4.90431 3.87093C4.93944 3.7509 4.95993 3.59575 4.95993 3.44645C4.95993 3.29714 4.93944 3.14199 4.90431 3.02196C4.87211 2.91657 4.796 2.75263 4.73159 2.65603C4.67011 2.55942 4.56765 2.43647 4.50325 2.38084C4.44177 2.32522 4.34224 2.25203 4.28661 2.21691C4.23099 2.17885 4.08462 2.11737 3.96459 2.07346C3.80065 2.01784 3.68941 1.99734 3.52547 2.00027C3.37031 2.00027 3.24443 2.02076 3.10099 2.07346ZM10.4929 5.86161C10.3553 5.89089 10.1767 5.93773 10.0977 5.96408C10.0157 5.99335 9.88395 6.04897 9.80491 6.08996C9.72294 6.12801 9.57949 6.21584 9.48289 6.28317C9.38628 6.34758 9.23112 6.47638 9.13744 6.57006C9.04669 6.66374 8.92081 6.81597 8.85933 6.90672L8.75102 7.07066L8.72174 5.99335L6.33585 5.97871V14H8.8242C8.8242 10.5749 8.83591 9.60586 8.85348 9.44777C8.87104 9.3014 8.90617 9.10526 8.92959 9.00865C8.95594 8.91205 9.01742 8.74811 9.06718 8.64565C9.12573 8.5344 9.22234 8.40266 9.31309 8.31777C9.39799 8.23873 9.53851 8.14212 9.62048 8.10406C9.70538 8.06308 9.86639 8.01624 9.98056 7.99574C10.0947 7.97818 10.2909 7.9694 10.4197 7.97818C10.5573 7.98696 10.7271 8.01917 10.8295 8.06015C10.9378 8.10113 11.0608 8.17725 11.1486 8.25922C11.2247 8.3324 11.3272 8.46707 11.3711 8.55489C11.415 8.64272 11.4677 8.77445 11.4882 8.84764C11.5087 8.92083 11.538 9.04378 11.5526 9.12575C11.5702 9.21358 11.5907 10.2118 11.6024 11.6287L11.6199 13.9854H14.079C14.0937 10.2645 14.0849 9.26334 14.0644 8.93547C14.0468 8.65443 14.0058 8.27678 13.9736 8.10113C13.9414 7.92256 13.877 7.66494 13.8273 7.52149C13.7804 7.38097 13.7072 7.19654 13.6663 7.11165C13.6223 7.02968 13.5345 6.88038 13.4643 6.78377C13.3969 6.68716 13.2623 6.53786 13.1686 6.45004C13.0749 6.36514 12.911 6.24219 12.8056 6.18071C12.7002 6.11923 12.4953 6.02848 12.3518 5.98164C12.2084 5.93187 11.9566 5.87332 11.7956 5.84698C11.6346 5.82356 11.3301 5.80306 11.1223 5.80599C10.8705 5.80599 10.6568 5.82648 10.4929 5.86161ZM2.29593 9.98936V14H4.78429V5.97871H2.29593V9.98936Z" fill="white"/>
</svg>
