<svg width="14" height="14" viewBox="0 0 14 14" fill="none" xmlns="http://www.w3.org/2000/svg">
<path d="M12.6345 6.08998L12.0628 8.52832C11.5728 10.6342 10.6045 11.4858 8.78445 11.3108C8.49279 11.2875 8.17779 11.235 7.83945 11.1533L6.85945 10.92C4.42695 10.3425 3.67445 9.14082 4.24612 6.70248L4.81779 4.25832C4.93445 3.76248 5.07445 3.33082 5.24945 2.97498C5.93195 1.56332 7.09279 1.18415 9.04112 1.64498L10.0153 1.87248C12.4595 2.44415 13.2061 3.65165 12.6345 6.08998Z" stroke="white" stroke-width="1.5" stroke-linecap="round" stroke-linejoin="round"/>
<path d="M8.78471 11.3108C8.42304 11.5558 7.96804 11.76 7.41388 11.9408L6.49221 12.2441C4.17638 12.9908 2.95721 12.3666 2.20471 10.0508L1.45804 7.74664C0.711377 5.43081 1.32971 4.20581 3.64554 3.45914L4.56721 3.15581C4.80638 3.07998 5.03388 3.01581 5.24971 2.97498C5.07471 3.33081 4.93471 3.76248 4.81804 4.25831L4.24638 6.70248C3.67471 9.14081 4.42721 10.3425 6.85971 10.92L7.83971 11.1533C8.17804 11.235 8.49304 11.2875 8.78471 11.3108Z" stroke="white" stroke-width="1.5" stroke-linecap="round" stroke-linejoin="round"/>
</svg>
