<svg width="52" height="36" viewBox="0 0 52 36" fill="none" xmlns="http://www.w3.org/2000/svg">
<path d="M50.1523 0.0546875H43.9662C43.2519 0.0546875 42.6646 0.595918 42.5997 1.28612C42.5941 1.31073 42.59 1.33396 42.59 1.35446C42.59 2.28795 42.4546 2.52166 41.819 2.5613H22.1955C21.1827 2.5613 20.677 3.20913 20.594 3.50571C20.4614 3.96221 20.0911 4.29979 19.4693 4.32849C19.4417 4.32986 19.4127 4.33123 19.3836 4.33123H6.89545C6.84157 4.33123 6.78906 4.33532 6.73656 4.34079C6.02496 4.36403 5.45569 4.93943 5.45569 5.64877C5.45569 5.69524 5.45844 5.73897 5.46259 5.78407C5.49299 6.54125 6.12444 6.97861 6.89545 6.97861H8.19156C8.69312 6.97861 9.12141 7.4023 9.12141 7.90529V30.816C9.12141 32.2306 8.58392 33.0041 7.99254 32.9823C7.40118 32.9317 7.03778 32.5586 6.58595 31.4351C6.02634 30.0629 5.09366 29.6652 3.94267 29.6159C2.9865 29.5722 1.46797 30.3171 1.24137 31.5841C1.01752 32.8565 1.35052 34.2793 3.49361 35.0761C6.35658 36.1217 8.89348 34.3791 8.89348 34.3791L15.1085 30.242C15.1085 30.242 16.6271 29.3945 17.2738 28.4215C18.0917 27.2488 18.0641 25.7823 18.0641 25.7823V7.90388C18.0641 7.3736 18.4827 6.97724 18.9885 6.97724H19.7761C20.8483 6.97724 21.238 6.41961 21.3264 6.12166C21.4715 5.6474 21.7465 5.21688 22.5685 5.21688H25.1276C25.9151 5.21688 26.5632 5.54079 26.5632 6.63829V28.6702C26.5632 28.6702 26.5936 29.3658 27.0108 29.6652C27.576 30.0629 28.2227 29.8606 28.5017 29.6624C31.1838 27.8051 34.8219 25.2916 34.7458 25.3476C35.5183 24.8173 35.5058 23.9002 35.5058 23.9002V6.34033C35.5058 5.6884 36.0668 5.21825 36.7135 5.21825H40.9927H41.0107C41.0797 5.21825 41.1433 5.21551 41.2027 5.21141H42.5941V24.3075C42.5941 24.5221 42.6397 25.1672 43.0308 25.4679C43.5987 25.8889 44.2509 25.7248 44.5355 25.5513C45.1849 25.1044 50.4687 21.4414 50.4687 21.4414C51.2273 20.9468 51.6059 20.3563 51.6059 19.5526V1.49113C51.6059 0.697057 50.9551 0.0546875 50.1523 0.0546875Z" fill="white"/>
</svg>
