<svg width="36" height="40" viewBox="0 0 36 40" fill="none" xmlns="http://www.w3.org/2000/svg">
<g clip-path="url(#clip0_1718_2547)">
<path d="M33.2847 37.7982C30.2811 39.508 25.1279 39.9966 18 39.9966C10.8721 39.9966 5.71886 39.508 2.71531 37.7982C0.912378 36.7745 0 35.3792 0 34.3785C0 33.8084 0.300653 33.4829 0.970425 33.4829H35.0291C35.6993 33.4829 35.9995 33.8084 35.9995 34.3785C36 35.3792 35.0876 36.7745 33.2847 37.7982ZM35.0291 11.2761H0.970425C0.300653 11.2761 0 10.927 0 10.2989C0 6.57617 5.55712 0.00390625 18 0.00390625C30.3278 0.00390625 36 6.57617 36 10.2989C36 10.927 35.6993 11.2761 35.0291 11.2761Z" fill="white"/>
<path d="M0 19.0353V13.9053C0 13.1842 0.439073 12.6486 1.35145 12.6486H2.72672C4.18235 12.6486 5.11805 13.3937 5.11805 14.789C5.11805 15.3826 4.89876 15.7897 4.67947 16.0457C4.62192 16.1158 4.5867 16.1388 4.5867 16.1968C4.5867 16.2438 4.64475 16.2898 4.7023 16.3368C4.84072 16.4528 5.45294 16.9294 5.45294 17.9651C5.45294 19.2559 4.51774 20.2916 2.98073 20.2916H1.35145C0.439073 20.2916 0 19.7565 0 19.0353ZM2.03363 15.4406C2.03363 15.5927 2.12591 15.7087 2.32237 15.7087H2.4722C2.96932 15.7087 3.11965 15.3131 3.11965 15.0341C3.11965 14.731 2.96883 14.3824 2.4722 14.3824H2.32237C2.12591 14.3824 2.03363 14.4989 2.03363 14.65V15.4406ZM2.03363 18.2792C2.03363 18.4307 2.12591 18.5467 2.32237 18.5467H2.53025C3.08442 18.5467 3.24616 18.1166 3.24616 17.8141C3.24616 17.4765 3.08492 17.1045 2.53025 17.1045H2.32237C2.12591 17.1045 2.03363 17.221 2.03363 17.372V18.2792ZM8.84943 20.3496C10.7213 20.3496 11.7151 19.2209 11.7151 17.8021V13.8823C11.7151 13.1842 11.3107 12.6256 10.571 12.6256C9.83176 12.6256 9.42741 13.1842 9.42741 13.8823V17.6741C9.42741 17.9531 9.26568 18.2792 8.84943 18.2792C8.43367 18.2792 8.29475 17.9531 8.29475 17.6741V13.8823C8.29475 13.1842 7.879 12.6256 7.13927 12.6256C6.39955 12.6256 5.9952 13.1842 5.9952 13.8823V17.8021C5.9962 19.2219 6.97803 20.3496 8.84943 20.3496ZM15.828 19.6644C15.5159 19.2569 15.2391 18.4537 15.1349 17.8611C15.1115 17.7211 15.0659 17.6401 14.927 17.6401C14.8119 17.6401 14.7424 17.7101 14.7424 17.8611V19.0938C14.7424 19.7915 14.3381 20.3501 13.5984 20.3501C12.8586 20.3501 12.4548 19.7915 12.4548 19.0938V13.9053C12.4548 13.1837 12.8934 12.6486 13.8062 12.6486H15.1125C16.5796 12.6486 17.7931 13.4863 17.7931 14.964C17.7931 15.9407 17.3769 16.5573 17.0187 16.8364C16.9145 16.9179 16.8917 16.9994 16.9264 17.0924C17.0762 17.4995 17.3769 17.8836 17.7118 18.3252C17.9196 18.5927 18.0814 18.8833 18.0814 19.2794C18.0814 19.8725 17.5609 20.3496 16.9606 20.3496C16.5905 20.3496 16.2209 20.1865 15.828 19.6644ZM15.7005 15.2316C15.7005 14.929 15.5506 14.58 15.0654 14.58H14.9037C14.7067 14.58 14.6144 14.697 14.6144 14.848V15.6382C14.6144 15.7897 14.7067 15.9057 14.9037 15.9057H15.0654C15.5506 15.9057 15.7005 15.5221 15.7005 15.2316ZM21.6624 20.3616C23.4768 20.3616 24.6203 19.1979 24.6203 17.5C24.6203 16.4183 23.9729 15.6737 22.6795 15.6737H22.3099C21.6277 15.6737 21.0968 15.9997 21.0968 16.7324C21.0968 17.384 21.6624 17.6981 22.0906 17.6981C22.3099 17.6981 22.4488 17.7681 22.4488 17.9306C22.4488 18.1402 22.2062 18.2797 21.9283 18.2797C21.0621 18.2797 20.4727 17.6631 20.4727 16.5113C20.4727 15.2316 21.2819 14.7665 21.9055 14.7665C22.6681 14.7665 22.7951 15.1626 23.3264 15.1626C23.9391 15.1626 24.3549 14.6505 24.3549 14.1159C24.3549 13.7198 24.1813 13.4177 23.9163 13.2082C23.4306 12.8471 22.7494 12.5801 21.7329 12.5801C19.9418 12.5801 18.197 13.7668 18.197 16.5118C18.1965 19.1398 19.9409 20.3616 21.6624 20.3616ZM28.6985 20.2916C29.3454 20.2916 29.854 19.9075 29.854 19.2099C29.854 18.5232 29.3454 18.1392 28.6985 18.1392H27.6586C27.4621 18.1392 27.3699 18.0231 27.3699 17.8716V17.6506C27.3699 17.4995 27.4621 17.383 27.6586 17.383H28.4559C29.0111 17.383 29.4496 17.0459 29.4496 16.4523C29.4496 15.8592 29.0111 15.5216 28.4559 15.5216H27.6586C27.4621 15.5216 27.3699 15.4051 27.3699 15.2536V15.0676C27.3699 14.9165 27.4621 14.8 27.6586 14.8H28.6985C29.3454 14.8 29.854 14.4159 29.854 13.7183C29.854 13.0317 29.3454 12.6476 28.6985 12.6476H26.515C25.6027 12.6476 25.1636 13.1827 25.1636 13.9043V19.0338C25.1636 19.755 25.6027 20.2906 26.515 20.2906H28.6985V20.2916ZM30.3734 19.0943V13.9058C30.3734 13.1842 30.8125 12.6496 31.7249 12.6496H33.0307C34.4977 12.6496 35.7113 13.4873 35.7113 14.9645C35.7113 15.9417 35.295 16.5583 34.9368 16.8374C34.8326 16.9184 34.8098 16.9999 34.8445 17.0929C34.9944 17.5 35.237 17.8261 35.6299 18.3262C35.8378 18.5932 35.9995 18.8838 35.9995 19.2799C35.9995 19.8735 35.4791 20.3501 34.8788 20.3501C34.5091 20.3501 34.1395 20.1875 33.7466 19.6634C33.4345 19.2559 33.1577 18.4532 33.0535 17.8601C33.0307 17.7206 32.9845 17.6396 32.8456 17.6396C32.7305 17.6396 32.6611 17.7091 32.6611 17.8601V19.0933C32.6611 19.791 32.2567 20.3496 31.517 20.3496C30.7778 20.3496 30.3734 19.7915 30.3734 19.0943ZM32.5341 15.6387C32.5341 15.7902 32.6263 15.9067 32.8228 15.9067H32.9845C33.4702 15.9067 33.6201 15.5226 33.6201 15.2316C33.6201 14.929 33.4702 14.58 32.9845 14.58H32.8228C32.6263 14.58 32.5341 14.697 32.5341 14.848V15.6387ZM7.25537 26.6318C7.15118 26.4688 7.13977 26.3637 7.13977 26.3177C7.13977 26.1897 7.20923 26.0967 7.34765 25.9687C7.67112 25.6661 8.4684 24.91 8.90747 24.2238C9.24186 23.7002 9.38078 23.2236 9.38078 22.8286C9.38078 21.8164 8.4684 21.0252 7.47466 21.0252C6.83912 21.0252 6.23831 21.3858 5.83446 22.0489C5.2912 22.9326 4.64375 23.9563 4.22849 24.3639C4.12431 24.4689 4.06676 24.4919 3.98638 24.4919C3.84747 24.4919 3.78992 24.3989 3.78992 24.2478V23.0841C3.78992 21.9444 3.11965 21.0252 1.90612 21.0252C0.681679 21.0252 0.0228219 21.9439 0.0228219 23.0841V30.25C0.0228219 31.3897 0.681183 32.3094 1.90612 32.3094C3.11965 32.3094 3.78992 31.3907 3.78992 30.25V28.5987C3.78992 28.4586 3.84747 28.3546 3.98638 28.3546C4.17094 28.3546 4.21758 28.5407 4.26322 28.6337C4.52915 29.2733 5.30311 30.6341 6.01951 31.4367C6.50522 31.9718 7.10554 32.3094 7.74108 32.3094C8.81569 32.3094 9.71715 31.3667 9.71715 30.355C9.71715 29.7269 9.45073 29.2613 8.9427 28.7032C8.29525 27.9925 7.5327 27.0619 7.25537 26.6318ZM12.5237 21.0242C11.2298 21.0242 10.5248 22.0014 10.5248 23.2226V30.1095C10.5248 31.3312 11.2298 32.3084 12.5237 32.3084C13.8172 32.3084 14.5221 31.3312 14.5221 30.1095V23.2226C14.5221 22.0019 13.8181 21.0242 12.5237 21.0242ZM23.6033 21.0242C22.4131 21.0242 21.7661 21.9199 21.7661 23.0486V25.5611C21.7661 25.7701 21.6966 25.8636 21.5696 25.8636C21.4774 25.8636 21.4079 25.8056 21.327 25.6431L19.7216 22.502C19.1093 21.3033 18.4738 21.0242 17.746 21.0242C16.5325 21.0242 15.8627 21.9434 15.8627 23.0951V30.2845C15.8627 31.4132 16.5096 32.3089 17.6993 32.3089C18.8896 32.3089 19.5365 31.4132 19.5365 30.2845V27.772C19.5365 27.563 19.6055 27.4694 19.733 27.4694C19.8253 27.4694 19.8947 27.5275 19.9751 27.6905L21.581 30.8311C22.1933 32.0298 22.8516 32.3089 23.5566 32.3089C24.7697 32.3089 25.4399 31.3902 25.4399 30.2385V23.0486C25.4399 21.9199 24.7935 21.0242 23.6033 21.0242ZM33.0654 25.5031H32.4993C31.4823 25.5031 30.6969 25.9802 30.6969 27.0269C30.6969 27.9805 31.5517 28.4341 32.1873 28.4341C32.4993 28.4341 32.7186 28.5272 32.7186 28.7712C32.7186 29.0743 32.349 29.2713 31.9561 29.2713C30.6508 29.2713 29.7607 28.3756 29.7607 26.7123C29.7607 24.8624 30.9742 24.1878 31.9094 24.1878C33.0535 24.1878 33.2381 24.7694 34.0353 24.7694C34.9596 24.7694 35.5833 24.0138 35.5833 23.2461C35.5833 22.676 35.3292 22.2339 34.9249 21.9314C34.2204 21.4078 33.1577 21.0237 31.6554 21.0237C28.9634 21.0237 26.3409 22.7335 26.3409 26.7123C26.3409 30.516 28.9629 32.2959 31.5512 32.2959C34.266 32.2959 35.9876 30.6091 35.9876 28.1431C35.9881 26.5848 35.0182 25.5031 33.0654 25.5031Z" fill="white"/>
</g>
<defs>
<clipPath id="clip0_1718_2547">
<rect width="36" height="40" fill="white"/>
</clipPath>
</defs>
</svg>
