<svg width="150" height="100" viewBox="0 0 150 100" fill="none" xmlns="http://www.w3.org/2000/svg">
<path d="M99.1523 32.0547H92.9662C92.2519 32.0547 91.6646 32.5959 91.5997 33.2861C91.5941 33.3107 91.59 33.334 91.59 33.3545C91.59 34.2879 91.4546 34.5217 90.819 34.5613H71.1955C70.1827 34.5613 69.677 35.2091 69.594 35.5057C69.4614 35.9622 69.0911 36.2998 68.4693 36.3285C68.4417 36.3299 68.4127 36.3312 68.3836 36.3312H55.8955C55.8416 36.3312 55.7891 36.3353 55.7366 36.3408C55.025 36.364 54.4557 36.9394 54.4557 37.6488C54.4557 37.6952 54.4584 37.739 54.4626 37.7841C54.493 38.5412 55.1244 38.9786 55.8955 38.9786H57.1916C57.6931 38.9786 58.1214 39.4023 58.1214 39.9053V62.816C58.1214 64.2306 57.5839 65.0041 56.9925 64.9823C56.4012 64.9317 56.0378 64.5586 55.5859 63.4351C55.0263 62.0629 54.0937 61.6652 52.9427 61.6159C51.9865 61.5722 50.468 62.3171 50.2414 63.5841C50.0175 64.8565 50.3505 66.2793 52.4936 67.0761C55.3566 68.1217 57.8935 66.3791 57.8935 66.3791L64.1085 62.242C64.1085 62.242 65.6271 61.3945 66.2738 60.4215C67.0917 59.2488 67.0641 57.7823 67.0641 57.7823V39.9039C67.0641 39.3736 67.4827 38.9772 67.9885 38.9772H68.7761C69.8483 38.9772 70.238 38.4196 70.3264 38.1217C70.4715 37.6474 70.7465 37.2169 71.5685 37.2169H74.1276C74.9151 37.2169 75.5632 37.5408 75.5632 38.6383V60.6702C75.5632 60.6702 75.5936 61.3658 76.0108 61.6652C76.576 62.0629 77.2227 61.8606 77.5017 61.6624C80.1838 59.8051 83.8219 57.2916 83.7458 57.3476C84.5183 56.8173 84.5058 55.9002 84.5058 55.9002V38.3403C84.5058 37.6884 85.0668 37.2182 85.7135 37.2182H89.9927H90.0107C90.0797 37.2182 90.1433 37.2155 90.2027 37.2114H91.5941V56.3075C91.5941 56.5221 91.6397 57.1672 92.0308 57.4679C92.5987 57.8889 93.2509 57.7248 93.5355 57.5513C94.1849 57.1044 99.4687 53.4414 99.4687 53.4414C100.227 52.9468 100.606 52.3563 100.606 51.5526V33.4911C100.606 32.6971 99.9551 32.0547 99.1523 32.0547Z" fill="white"/>
</svg>
