<svg width="50" height="50" viewBox="0 0 50 50" fill="none" xmlns="http://www.w3.org/2000/svg">
<path d="M24.3464 25.6439C24.3906 25.6523 24.4349 25.6602 24.4789 25.668L24.3464 25.6439ZM24.7079 25.7041C24.7594 25.7118 24.8108 25.7186 24.8624 25.7254L24.7079 25.7041ZM25.0901 25.75C25.1403 25.7545 25.1903 25.7588 25.2406 25.7627L25.0901 25.75ZM25.2944 25.7664C25.3369 25.7695 25.3793 25.772 25.4218 25.7742L25.2944 25.7664ZM25.4836 25.7775C25.5339 25.7797 25.5842 25.7816 25.6345 25.7832L25.4836 25.7775ZM25.6845 25.7838C25.7968 25.7868 25.9092 25.7869 26.0215 25.7841L25.6845 25.7838ZM26.0752 25.7832C26.1276 25.7817 26.1799 25.7796 26.2323 25.7772L26.0752 25.7832ZM26.2817 25.7748C26.3271 25.7723 26.3717 25.7695 26.4168 25.7664L26.2817 25.7748ZM26.4637 25.7631C26.5128 25.7594 26.5621 25.7553 26.6109 25.7507L26.4637 25.7631ZM26.8628 25.7226C26.9006 25.7182 26.9382 25.7133 26.9756 25.7074L26.8628 25.7226ZM33.7632 13.0303C33.7225 13.0084 33.6807 12.9884 33.6381 12.9706L33.7632 13.0303ZM33.3532 12.8829C33.3009 12.8722 33.2481 12.8641 33.195 12.8586L33.3532 12.8829ZM6.51087 18.3246C6.32884 18.1576 6.19052 17.9485 6.108 17.7156C6.04086 17.5211 5.95389 17.2781 5.95389 17.0718C5.95818 16.1415 6.50111 15.4505 7.0856 15.1306C7.35123 14.9854 7.44988 14.8857 7.4904 14.8345C7.47095 14.8259 7.45021 14.8206 7.42902 14.8189C6.63348 14.8189 6.22558 14.5097 6.02533 14.2481C5.83557 14.003 5.7387 13.6871 5.7387 13.3417C5.7387 13.1738 5.76237 12.9981 5.80895 12.8184C6.03317 12.4481 6.24614 12.5498 6.37658 12.7393C6.4597 12.8579 7.02925 13.2616 7.73103 13.3257C8.24172 13.3742 8.51696 13.624 8.66012 13.8235C8.82517 14.0545 8.88847 14.3329 8.88847 14.5696C8.88847 14.6665 8.87753 14.7575 8.85668 14.8384C8.77977 15.1504 8.45099 15.4317 7.9931 15.7901L7.73339 16.0054C7.35315 16.3382 7.14388 16.7085 7.14388 17.0224C7.14388 17.1008 7.15763 17.1772 7.1841 17.2478C7.19505 17.2768 7.20821 17.3047 7.22374 17.3312C7.39367 17.6188 7.8739 17.7993 8.57049 17.5555C8.89247 17.4439 9.5123 17.0537 9.89077 16.6785C10.3361 16.2342 10.9305 16.1276 11.5029 16.0823C11.9992 16.0449 12.3048 15.9232 12.5199 15.6812C13.1559 14.9647 13.7679 14.864 14.3407 14.8214C14.5599 14.8045 14.5717 14.7888 14.6003 14.7502C14.916 14.3298 15.2404 14.1072 15.5314 13.9776C15.7533 13.879 15.9559 13.834 16.1218 13.7976L16.3233 13.7481L16.3736 13.7303C16.6924 13.6277 16.9393 13.5426 17.588 13.1043L17.6156 13.0868L17.6158 13.0865L17.643 13.0695L17.6433 13.0694L17.6706 13.0533L17.6711 13.0531L17.6984 13.0374L17.6989 13.0373L17.7264 13.0228L17.7273 13.0225L17.7545 13.0083L17.7554 13.008L17.7827 12.9947L17.7839 12.9944L17.8114 12.9817L17.8125 12.9811L17.8401 12.9695L17.8413 12.9691L17.8688 12.9577L17.8703 12.9574L17.8979 12.9471L17.8993 12.9463L17.9266 12.9366L17.9558 12.9268L17.9577 12.9264L17.9849 12.9176L17.9867 12.9172L18.0143 12.9092L18.0163 12.9088L18.0436 12.9012L18.0457 12.9006L18.0732 12.8941L18.0757 12.8935L18.1028 12.8873L18.105 12.8867L18.1327 12.8811L18.135 12.8805L18.1624 12.8755L18.1649 12.875L18.1923 12.8705L18.1948 12.8702L18.2218 12.8662L18.2247 12.8656L18.2519 12.8625L18.2547 12.8619L18.2814 12.8589L18.2844 12.8588L18.3115 12.8563L18.3146 12.856L18.3415 12.854L18.3446 12.8537L18.3711 12.8521L18.3742 12.852L18.4009 12.8508L18.4308 12.8499H18.4339L18.4605 12.8496H18.4937L18.52 12.8499L18.5231 12.85H18.5262C18.5451 12.8505 18.5641 12.8517 18.583 12.8527L18.609 12.8543L18.6127 12.8546L18.6383 12.8565L18.6422 12.8568L18.6678 12.8594L18.6717 12.8598L18.6972 12.8623L18.7013 12.8626L18.7266 12.8657L18.7306 12.8663L18.7558 12.8694L18.76 12.8702L18.7849 12.8739L18.789 12.8746L18.814 12.8784L18.8185 12.8793L18.8429 12.8836L18.8474 12.8844L18.8717 12.8888L18.8761 12.8898C18.9149 12.8971 18.953 12.9056 18.9905 12.9148L19.014 12.9207L19.0187 12.9221C19.0564 12.9318 19.0937 12.9422 19.1304 12.9531L19.1521 12.9599L19.1574 12.9616C19.2302 12.9845 19.3008 13.0104 19.3691 13.0377L19.3883 13.0457L19.4135 13.0561C20.8007 11.1714 22.994 9.91738 25.4869 9.80394V9.80335C25.6096 9.79783 25.7324 9.79502 25.8553 9.79492C25.9365 9.79498 26.0177 9.79621 26.0989 9.79862C26.1392 9.79995 26.1796 9.80158 26.2198 9.8032H26.2203C26.2602 9.80513 26.3006 9.80705 26.3407 9.80956C28.7529 9.9545 30.8773 11.1693 32.2455 12.9857C32.4409 12.9178 32.6537 12.8685 32.8709 12.8537L32.8767 12.8534L32.8973 12.8521L32.9187 12.8511L32.9239 12.8508L32.9295 12.8506L32.9505 12.85L32.9561 12.8497L32.9771 12.8496L32.9827 12.8494L33.0042 12.8493H33.0094L33.0308 12.8494H33.0361L33.0626 12.8499L33.0842 12.8508L33.0889 12.8509L33.1105 12.852L33.1156 12.8523L33.1373 12.8537L33.1414 12.854L33.1635 12.8558L33.1678 12.8561L33.19 12.8583L33.1939 12.8588C33.2471 12.8642 33.2999 12.8723 33.3522 12.883L33.3754 12.8878L33.3785 12.8885L33.4014 12.894L33.4047 12.8946L33.4278 12.9005L33.4309 12.9012L33.4542 12.9074L33.4568 12.9082L33.4807 12.9148L33.4829 12.9156L33.5063 12.9228L33.509 12.9235L33.5328 12.9314L33.5348 12.932L33.5606 12.941L33.5847 12.9496L33.5862 12.9503L33.6101 12.9596L33.6116 12.9602L33.636 12.97L33.6375 12.9707C33.6796 12.9885 33.7213 13.0081 33.7626 13.0305L33.7634 13.0309L33.7878 13.0439L33.788 13.0442L33.8125 13.0583L33.8129 13.0584L33.8373 13.0732L33.8376 13.0734L33.8617 13.0886L33.8861 13.1044C34.3331 13.4082 34.5913 13.5421 34.8116 13.6295C34.9107 13.6689 35.0027 13.6987 35.1003 13.7305L35.1517 13.7482L35.3552 13.7978C35.4655 13.822 35.5915 13.85 35.728 13.8946C36.0695 14.0059 36.4776 14.2218 36.8735 14.7504C36.9022 14.789 36.9149 14.8047 37.1351 14.8215C37.7073 14.8643 38.3183 14.9648 38.9569 15.6814C39.1705 15.9233 39.4746 16.0449 39.9708 16.0825C40.5465 16.1277 41.139 16.2342 41.5834 16.6787C41.9623 17.0539 42.5814 17.444 42.9043 17.5557C43.6006 17.7994 44.0832 17.619 44.2491 17.3313C44.2855 17.2707 44.3099 17.204 44.3223 17.1334C44.3289 17.0968 44.3322 17.0597 44.3323 17.0225C44.3323 16.7087 44.1227 16.3384 43.7435 16.0056L43.6963 15.9664L43.4813 15.7902C43.0251 15.4319 42.6962 15.1506 42.6169 14.8385C42.5961 14.7576 42.5871 14.6667 42.5871 14.5698C42.5871 14.3329 42.6518 14.0547 42.8136 13.8236C42.9578 13.6241 43.236 13.3743 43.7435 13.3258C44.4489 13.2618 45.0154 12.858 45.0982 12.7394C45.2309 12.55 45.4418 12.4482 45.6651 12.8185C45.7124 12.9982 45.7361 13.1739 45.7361 13.3418C45.7361 13.6892 45.6392 14.0032 45.4496 14.2483C45.248 14.5099 44.8415 14.819 44.0446 14.819C44.0277 14.819 44.0042 14.8268 43.9845 14.8347C44.024 14.886 44.1227 14.9857 44.3889 15.1308C44.9734 15.4508 45.5169 16.1418 45.5218 17.0719C45.5218 17.2782 45.4359 17.5211 45.3665 17.7157C45.294 17.9199 45.1791 18.1063 45.0293 18.2628C45.009 18.2838 44.9879 18.3045 44.9655 18.3248C44.6363 18.6306 44.0879 18.8707 43.1742 18.8161C43.078 18.8102 42.982 18.8015 42.8863 18.79C42.8626 19.251 42.7361 19.799 42.5582 20.0754C42.5041 20.1622 42.4934 20.2205 42.4934 20.2491C42.4934 20.261 42.4946 20.268 42.4946 20.273C42.5002 20.2749 42.9 20.5108 42.9 20.5108L42.9645 20.5435C42.9645 20.5435 43.0021 20.5613 43.0069 20.5653C43.0127 20.5632 43.1451 20.5573 43.1451 20.5573L43.1713 20.5536L43.1739 20.5533C43.4239 20.5295 43.8056 20.4072 43.9678 20.8603C44.0103 20.9806 44.0362 21.0853 44.0606 21.178C44.1101 21.3676 44.1526 21.5084 44.3185 21.6363C44.3185 21.6363 44.4006 21.5659 44.4938 21.4831C44.5657 21.4196 44.6363 21.3544 44.7054 21.2877C44.8211 21.1693 45.0351 21.2295 45.1893 21.2877C45.3453 21.3469 45.5385 21.4813 45.675 21.5591C45.8124 21.6362 45.8881 21.7339 45.9276 21.8506C45.9689 21.967 46.0643 22.0441 46.2098 22.1211C46.3503 22.201 46.5518 22.4569 46.5518 22.8022C46.5518 22.8552 46.5577 22.9004 46.5726 22.9485C46.5828 22.9803 46.5967 23.0134 46.6158 23.0511C46.8122 23.447 46.6545 23.6464 46.5408 23.7304C46.3879 23.8449 46.1181 23.8922 45.8646 23.8508L45.8667 23.9159L45.4965 23.8665C45.353 23.8486 45.1639 23.8853 45.0509 23.9088L45.0243 23.9159C44.7607 23.9682 44.4161 23.8791 44.2225 23.5646C44.2154 23.5529 44.2083 23.5413 44.2017 23.5288C44.1029 23.3553 43.9491 23.1943 43.8738 23.1498C43.7651 23.1796 43.5934 23.2202 43.389 23.1993C43.1994 23.1802 42.9806 23.1075 42.7582 22.9232C42.7214 22.8926 42.6842 22.8587 42.6474 22.822C42.3206 22.4941 41.8893 22.427 41.6182 22.4686L41.4565 22.4972C41.1229 22.5576 40.7061 22.6345 40.3211 22.3996C40.2253 22.3412 40.0872 22.281 39.9517 22.2238C39.6022 22.0716 39.2409 21.9147 39.1916 21.5838C39.1834 21.5248 39.1195 21.417 39.067 21.3312C39.0208 21.2554 38.9705 21.1724 38.9316 21.0835C38.8942 20.9986 38.8673 20.9082 38.8648 20.8139C38.7503 20.8433 38.6321 20.8554 38.5141 20.8497C38.4724 20.8476 38.4309 20.8435 38.3896 20.8374L38.2378 20.8139C37.9821 20.7702 37.4466 20.6822 37.2761 20.7445C36.9365 20.867 35.8679 20.9261 35.5749 20.8591C35.5749 20.8591 35.4671 20.8355 35.3655 20.8139C35.2679 20.9146 35.1591 21.0091 35.0446 21.0933C35.259 21.1049 35.4476 21.0783 35.5772 21.1117L35.8463 21.1827C35.9323 21.1573 36.1424 21.1603 36.2618 21.171L36.5771 21.1947L36.9368 21.2293C37.1101 21.2641 37.2941 21.3389 37.2626 21.6785C37.2505 21.7832 37.1919 21.9312 37.1038 22.0182C37.0553 22.0714 36.8673 22.344 36.826 22.4298L36.8126 22.4566C36.7393 22.6126 36.6308 22.7559 36.3147 22.7559C36.2746 22.7554 36.2345 22.757 36.1945 22.7607C36.1849 22.7862 36.159 22.8337 36.159 22.8337C36.0879 22.9955 35.9851 23.2208 35.7887 23.3511L35.7362 23.3888C35.5785 23.5013 35.3158 23.6868 34.9137 23.5408L34.7753 23.4913C34.4247 23.365 33.8947 23.1755 33.6271 23.0292L33.5896 23.0085C33.3404 22.8722 33.2852 22.8448 33.1947 22.8575L33.1444 22.8654C32.9533 22.8921 32.593 22.9405 32.344 22.5276L32.3212 22.4918C31.1402 24.1127 29.3652 25.273 27.3165 25.6517L27.3075 25.6537C27.2377 25.6664 27.1673 25.6782 27.0969 25.6893L27.0707 25.6932L26.9744 25.7074C26.937 25.713 26.8994 25.718 26.8616 25.7227L26.7929 25.7313L26.6847 25.743L26.6097 25.7508C26.5609 25.7554 26.5116 25.7596 26.4625 25.7633L26.416 25.7664C26.3708 25.7695 26.3262 25.7724 26.2808 25.7748L26.2314 25.7775C26.179 25.78 26.127 25.7819 26.0743 25.7835L26.0209 25.7844C25.9086 25.7872 25.7962 25.7871 25.6839 25.7841L25.6336 25.7835C25.5833 25.7819 25.533 25.78 25.4827 25.7778L25.4212 25.7744C25.3787 25.772 25.3363 25.7698 25.2939 25.7665L25.2399 25.763C25.1897 25.7591 25.1395 25.7549 25.0893 25.7502L25.0151 25.7426L24.9167 25.7319L24.8618 25.7256C24.8102 25.7192 24.7587 25.7121 24.7073 25.7041L24.645 25.6949L24.535 25.6778L24.4783 25.6683C24.4341 25.6605 24.3899 25.6528 24.3458 25.6442L24.2504 25.6251L24.2016 25.6152C24.1364 25.601 24.0707 25.587 24.006 25.5713L23.9888 25.5673L23.8869 25.5425L23.8345 25.529C23.7738 25.5133 23.7133 25.4965 23.6529 25.4796L23.6313 25.4732C21.835 24.955 20.2999 23.8237 19.2651 22.3211L19.1289 22.5285C18.8822 22.9414 18.5227 22.8929 18.3291 22.8662L18.2788 22.8584C18.1886 22.8457 18.1315 22.8731 17.8846 23.0094L17.845 23.0301C17.5783 23.1764 17.0503 23.3658 16.6979 23.4922L16.5592 23.5417C16.1573 23.6877 15.8938 23.5019 15.7391 23.3897L15.6848 23.3519C15.4883 23.2218 15.3865 22.9965 15.3143 22.8346C15.3143 22.8346 15.2907 22.7871 15.2791 22.7615C15.2391 22.7579 15.1988 22.7563 15.1586 22.7568C14.8455 22.7568 14.7338 22.6135 14.6618 22.4575L14.6491 22.4307C14.6066 22.3449 14.421 22.0723 14.3697 22.0191C14.2829 21.9323 14.2212 21.7841 14.2115 21.6794C14.1789 21.3398 14.3654 21.265 14.5371 21.2302L14.897 21.1956L15.2129 21.1719C15.3303 21.1611 15.5406 21.1582 15.6264 21.1836L15.8959 21.1126C16.0241 21.0792 16.2146 21.1058 16.4271 21.0941C16.3141 21.0085 16.2072 20.9152 16.1072 20.8148C16.0044 20.8364 15.8976 20.86 15.8976 20.86C15.6038 20.927 14.5371 20.8679 14.1996 20.7454C14.0281 20.6831 13.493 20.771 13.2361 20.8148L13.082 20.8383C12.9247 20.8624 12.7642 20.8544 12.6102 20.8148C12.602 21.0081 12.4973 21.1836 12.4075 21.3321C12.3553 21.4179 12.2892 21.5257 12.2812 21.5847C12.2351 21.9156 11.8693 22.0725 11.5209 22.2247C11.3856 22.2819 11.2495 22.3421 11.1529 22.4005C10.7708 22.6354 10.3521 22.5585 10.0174 22.4981L9.85528 22.4694C9.58566 22.4279 9.1541 22.495 8.82651 22.8229C8.32558 23.3227 7.82716 23.2128 7.60014 23.1507C7.52501 23.1952 7.37016 23.3562 7.2721 23.5297C7.08279 23.8734 6.72118 23.971 6.44876 23.9168L6.4214 23.9097C6.30959 23.8861 6.12279 23.8495 5.97977 23.8674L5.60737 23.9168L5.61136 23.8517C5.35653 23.8931 5.08588 23.8456 4.93236 23.7313C4.81952 23.6473 4.66142 23.4479 4.86108 23.052C4.90737 22.9571 4.92319 22.8911 4.92319 22.8031C4.92319 22.4576 5.123 22.2019 5.26321 22.122C5.41022 22.045 5.50695 21.9679 5.54629 21.8515C5.58489 21.7348 5.66061 21.6371 5.79816 21.56C5.93422 21.4822 6.12782 21.3478 6.28296 21.2886C6.43781 21.2304 6.65182 21.1702 6.76851 21.2886C6.88609 21.4031 7.15541 21.6371 7.15541 21.6371C7.40255 21.4463 7.37888 21.2264 7.50696 20.8609C7.66714 20.4077 8.05034 20.5301 8.2991 20.5539L8.32765 20.5579C8.32765 20.5579 8.46179 20.5638 8.46578 20.5659C8.47273 20.5619 8.5103 20.5441 8.5103 20.5441L8.57256 20.5114C8.57256 20.5114 8.97425 20.2755 8.97825 20.2736C8.98002 20.2687 8.98002 20.2616 8.98002 20.2496C8.98002 20.2211 8.97026 20.1628 8.91598 20.076C8.73732 19.7994 8.61102 19.2516 8.58809 18.7906C8.52361 18.7983 8.46135 18.8047 8.40012 18.8096C7.42725 18.8877 6.84912 18.6416 6.51087 18.3246Z" fill="white"/>
<rect x="18" y="10" width="16" height="16" rx="8" fill="#DDDDDD"/>
<path d="M8.90668 18.4539C8.90668 18.4539 8.82564 19.2385 9.17911 19.9299C9.17911 19.9299 9.44104 20.3012 9.16905 20.5396L8.6276 20.8543C8.6276 20.8543 8.55484 20.9084 8.31332 20.8901C8.31332 20.8901 7.97952 20.8074 7.868 20.9549C7.868 20.9549 7.77113 21.2384 7.64985 21.4721C7.64985 21.4721 7.40331 22.0385 6.99526 22.22C6.99526 22.22 6.67003 22.2945 6.57138 22.5766C6.57138 22.5766 6.46652 22.7744 6.25651 22.7832C6.25651 22.7832 6.09989 22.8329 5.99621 23.1818C5.99621 23.1818 5.93971 23.4074 5.94267 23.5805C5.94267 23.5805 6.20977 23.5454 6.38385 23.6084C6.38385 23.6084 6.81186 23.7522 7.00324 23.3996C7.00324 23.3996 7.37299 22.7665 7.64719 22.8617C7.64719 22.8617 8.19796 23.046 8.58693 22.644C8.58693 22.644 9.12128 22.0603 9.876 22.1803C9.876 22.1803 10.7261 22.3525 10.9913 22.1564C10.9913 22.1564 11.5274 21.8761 11.7286 21.8066C11.7286 21.8066 11.9747 21.7343 12.0001 21.4648C12.0001 21.4648 12.1498 21.0858 12.2586 20.9595L11.8531 20.9549C11.8531 20.9549 11.4859 21.5725 10.8619 21.7587C10.8619 21.7587 10.5207 21.8951 9.83578 21.7843C9.83578 21.7843 8.85241 21.5615 7.98868 22.4943C7.98868 22.4943 7.87066 22.6649 7.70221 22.5967C7.70221 22.5967 8.17947 21.7828 9.22733 21.5899C9.22733 21.5899 9.5703 21.517 9.85633 21.5635C9.85633 21.5635 11.2677 21.6049 11.9222 20.2154C11.9222 20.2154 11.8513 19.0307 12.1638 18.7502C12.1638 18.7502 12.2845 18.7132 12.2604 18.9423C12.2604 18.9423 12.0457 20.1833 12.449 20.4236C12.449 20.4236 12.6831 20.6076 13.1163 20.5396C13.1163 20.5396 13.773 20.3827 14.3067 20.4741C14.3067 20.4741 15.1275 20.6688 15.8329 20.5788C15.8329 20.5788 15.6498 20.2983 15.6857 19.9631C15.6857 19.9631 15.7867 19.723 15.9025 19.8774C15.9025 19.8774 16.1739 20.774 16.9156 21.043C16.9156 21.043 17.5781 21.2842 17.5673 22.1244C17.5673 22.1244 17.4658 22.2397 16.5874 22.5517C16.5874 22.5517 16.2593 22.6554 16.1535 22.4102C16.1535 22.4102 15.7299 21.5036 15.3612 21.5315L14.6689 21.5877C14.6689 21.5877 14.4327 21.6482 14.6067 21.8375C14.6067 21.8375 14.8437 22.1527 14.9406 22.3408C14.9406 22.3408 14.9689 22.5016 15.1916 22.4674C15.1916 22.4674 15.5005 22.3143 15.6748 22.8891C15.6748 22.8891 15.8342 23.1764 16.1041 23.2683C16.1041 23.2683 16.3566 23.3526 16.5935 23.2196C16.5935 23.2196 17.7369 22.7999 17.936 22.6511C17.936 22.6511 18.1833 22.5127 18.3794 22.5792C18.3794 22.5792 18.7223 22.661 18.8636 22.3904L19.2179 21.8421C19.2179 21.8421 19.2957 21.7071 19.2849 21.5374C19.2849 21.5374 19.317 21.3694 19.1754 21.1986C19.1754 21.1986 19.0415 21.0571 19.0204 20.9546L18.7677 20.3609C18.7677 20.3609 18.6654 20.2024 18.553 20.1371L18.2158 20.1618C18.2158 20.1618 18.4478 20.7549 18.6178 20.9966C18.6178 20.9966 18.8478 21.3483 18.8361 21.5719C18.8361 21.5719 18.8208 21.7287 18.759 21.794C18.759 21.794 18.6812 21.9186 18.6499 21.9791C18.6499 21.9791 18.5477 22.2009 18.4647 22.2502C18.4647 22.2502 18.3212 22.335 18.2863 22.3384C18.2863 22.3384 18.2239 22.3558 18.2702 22.2439C18.2702 22.2439 18.4592 21.8462 18.4468 21.6336C18.4468 21.6336 18.4835 21.412 18.3267 21.2823C18.3267 21.2823 17.9593 20.7024 17.9067 20.5291C17.9067 20.5291 17.7915 20.2972 17.7301 20.2574C17.7301 20.2574 17.6017 20.0886 17.8089 20.0097C17.8089 20.0097 18.3251 19.8931 18.4175 19.8298C18.4175 19.8298 18.6657 19.7547 18.8269 19.2378C18.8269 19.2378 19.0489 18.6349 19.0456 18.2628C19.0456 18.2628 19.4808 19.1017 18.7868 19.9548C18.7868 19.9548 19.336 20.1167 19.5631 19.9548C19.5631 19.9548 20.2472 19.8548 20.3792 19.8184C20.3792 19.8184 20.5512 19.7769 20.453 19.8989C20.453 19.8989 20.2467 20.1923 20.2293 20.3846C20.2293 20.3846 20.216 20.5376 20.0905 20.6273C20.0905 20.6273 19.7017 20.8996 19.6676 21.1603C19.6676 21.1603 19.5844 21.4113 19.7561 21.3512C19.7561 21.3512 19.9889 21.2434 20.0712 21.352C20.0712 21.352 20.0953 21.3634 20.0055 21.4641C20.0055 21.4641 19.772 21.6673 19.7545 21.94C19.7545 21.94 19.7977 22.2547 19.8802 22.3559C19.8802 22.3559 19.9854 22.5017 20.1516 22.4554C20.1516 22.4554 20.1957 22.4198 20.2753 22.4438C20.2753 22.4438 20.3575 22.4435 20.5722 22.3692C20.5722 22.3692 20.8978 22.2797 21.0066 22.2413C21.0066 22.2413 21.421 22.0931 21.6254 22.1034C21.6254 22.1034 21.7584 22.0888 21.9279 22.1227C21.9279 22.1227 22.4461 22.1815 22.7914 21.7998C22.7914 21.7998 23.0543 21.5914 23.1434 21.7937C23.1434 21.7937 23.7739 22.6397 24.7944 22.4168C24.7944 22.4168 23.9825 22.0829 23.7719 21.6281C23.7719 21.6281 23.7438 21.2419 23.3184 20.7057C23.3184 20.7057 23.1884 20.5277 23.3138 20.4814C23.3138 20.4814 23.3864 20.4272 23.5448 20.5862C23.5448 20.5862 23.9489 20.9738 24.0949 21.3286C24.0949 21.3286 24.5967 22.0869 25.3199 21.832C25.3199 21.832 24.7521 21.613 24.4853 21.2045C24.4853 21.2045 24.3204 20.6517 23.7661 20.2404C23.7661 20.2404 23.7444 19.6191 23.4858 19.2699C23.4858 19.2699 23.3541 18.6864 23.3186 18.5501C23.3186 18.5501 23.1791 18.0376 23.18 17.8961C23.18 17.8961 23.2261 17.2267 22.7946 16.7056C22.7946 16.7056 22.5054 16.1482 22.0551 15.7598C22.0551 15.7598 21.7128 15.337 21.4583 15.078C21.4583 15.078 21.1235 14.6855 20.3934 14.1733C20.3934 14.1733 20.0629 13.933 19.8208 13.6746C19.8208 13.6746 18.533 12.7477 17.6028 13.4912C17.6028 13.4912 16.9603 13.9283 16.4237 14.0636C16.4237 14.0636 15.321 14.192 14.8508 14.9573C14.8508 14.9573 14.8106 15.0987 14.3662 15.1526C14.3662 15.1526 13.3899 15.0347 12.6711 15.9948C12.6711 15.9948 12.3372 16.3208 11.6761 16.4001C11.6761 16.4001 10.5979 16.2897 9.89597 17.1163C9.89597 17.1163 8.12475 18.6614 7.06861 17.6594C7.06861 17.6594 6.52139 17.1413 7.147 16.2032C7.147 16.2032 7.54381 15.7243 8.22074 15.224C8.22074 15.224 8.76988 14.8371 8.51816 14.2356C8.51816 14.2356 8.3852 13.6544 7.56215 13.639C7.56215 13.639 6.52938 13.4395 6.11172 12.918C6.11172 12.918 5.6454 14.5604 7.47563 14.533C7.47563 14.533 7.9526 14.6036 7.78607 14.9822C7.78607 14.9822 7.55224 15.3061 7.2384 15.4239C7.2384 15.4239 6.6863 15.6655 6.4368 16.4694C6.4368 16.4694 5.87922 17.8768 7.23958 18.4201C7.76314 18.6009 8.36789 18.5477 8.90668 18.4539ZM6.28757 21.7704C6.36137 21.7087 6.46948 21.6739 6.56547 21.6964C6.78199 21.743 6.65095 21.9305 6.65095 21.9305C6.56325 22.0946 6.27707 22.3713 6.27707 22.3713C6.02254 22.5619 5.82095 22.3349 5.82095 22.3349C5.63238 22.149 5.87774 22.0591 5.87774 22.0591C6.02046 22.0011 6.28757 21.7704 6.28757 21.7704ZM5.74183 22.6501C5.74183 22.6501 5.82095 22.7085 5.77865 22.8238C5.77865 22.8238 5.57662 23.3768 5.58609 23.5624C5.58609 23.5624 5.139 23.6423 5.07703 23.4216C5.07703 23.4216 5.06505 23.3365 5.13796 23.213C5.13796 23.213 5.21383 23.0978 5.2335 22.887C5.2335 22.887 5.22685 22.3566 5.57041 22.4971C5.63859 22.5353 5.69243 22.5908 5.74183 22.6501ZM21.5003 21.5278C21.4216 21.5259 21.4017 21.4971 21.4111 21.4104C21.4639 21.1695 21.6571 21.0655 21.6571 21.0655C22.0194 20.849 22.0635 21.0658 22.0635 21.0658C22.1299 21.4525 21.8242 21.5012 21.8242 21.5012C21.7631 21.5222 21.5003 21.5278 21.5003 21.5278ZM22.5934 19.8007C22.6001 19.6192 22.6154 19.2159 22.431 19.0718C22.363 19.0177 22.0938 18.7229 22.0938 18.7229C22.0528 18.6515 22.0213 18.6471 22.0213 18.6471C21.9659 18.6417 21.8943 18.7707 21.8943 18.7707C21.7026 19.1406 21.5114 19.0955 21.5114 19.0955C21.5098 19.0281 21.5549 18.9528 21.5549 18.9528C21.6474 18.7731 21.739 18.5929 21.8298 18.4124C21.8578 18.3482 21.8835 18.2627 21.8835 18.2627C22.0685 17.9759 22.2429 18.1942 22.2429 18.1942C22.3207 18.3461 22.7355 18.841 22.7355 18.841C22.8275 18.9504 22.8364 19.068 22.8364 19.068C22.9325 19.7458 22.5934 19.8007 22.5934 19.8007ZM18.7725 15.7089C18.7158 15.607 18.7392 15.5031 18.7961 15.404C18.9245 15.2073 19.0445 15.4219 19.0445 15.4219C19.4877 16.0398 19.1604 16.9649 19.1604 16.9649C19.1149 16.1134 18.7725 15.7089 18.7725 15.7089ZM42.5711 18.4539C42.5711 18.4539 42.6522 19.2385 42.2987 19.9299C42.2987 19.9299 42.0368 20.3012 42.3087 20.5396L42.8503 20.8543C42.8503 20.8543 42.923 20.9084 43.1646 20.8901C43.1646 20.8901 43.4983 20.8074 43.6096 20.9549C43.6096 20.9549 43.7067 21.2384 43.8278 21.4721C43.8278 21.4721 44.0748 22.0385 44.4828 22.22C44.4828 22.22 44.8079 22.2945 44.9063 22.5766C44.9063 22.5766 45.0114 22.7744 45.2211 22.7832C45.2211 22.7832 45.3781 22.8329 45.4816 23.1818C45.4816 23.1818 45.5382 23.4074 45.5354 23.5805C45.5354 23.5805 45.2682 23.5454 45.0939 23.6084C45.0939 23.6084 44.6661 23.7522 44.4747 23.3996C44.4747 23.3996 44.105 22.7665 43.8307 22.8617C43.8307 22.8617 43.2801 23.046 42.891 22.644C42.891 22.644 42.3568 22.0603 41.6019 22.1803C41.6019 22.1803 40.7521 22.3525 40.4868 22.1564C40.4868 22.1564 39.9507 21.8761 39.7495 21.8066C39.7495 21.8066 39.5033 21.7343 39.4781 21.4648C39.4781 21.4648 39.3283 21.0858 39.2195 20.9595L39.6248 20.9549C39.6248 20.9549 39.9919 21.5725 40.6159 21.7587C40.6159 21.7587 40.9574 21.8951 41.642 21.7843C41.642 21.7843 42.6255 21.5615 43.4893 22.4943C43.4893 22.4943 43.6074 22.6649 43.7756 22.5967C43.7756 22.5967 43.2986 21.7828 42.2506 21.5899C42.2506 21.5899 41.9078 21.517 41.6215 21.5635C41.6215 21.5635 40.2101 21.6049 39.5553 20.2154C39.5553 20.2154 39.6265 19.0307 39.314 18.7502C39.314 18.7502 39.1936 18.7132 39.2172 18.9423C39.2172 18.9423 39.4318 20.1833 39.0288 20.4236C39.0288 20.4236 38.7945 20.6076 38.3614 20.5396C38.3614 20.5396 37.7048 20.3827 37.1712 20.4741C37.1712 20.4741 36.3501 20.6688 35.6448 20.5788C35.6448 20.5788 35.828 20.2983 35.7921 19.9631C35.7921 19.9631 35.6909 19.723 35.5751 19.8774C35.5751 19.8774 35.3037 20.774 34.5619 21.043C34.5619 21.043 33.8994 21.2842 33.9102 22.1244C33.9102 22.1244 34.012 22.2397 34.8905 22.5517C34.8905 22.5517 35.2188 22.6554 35.3246 22.4102C35.3246 22.4102 35.7477 21.5036 36.1166 21.5315L36.8092 21.5877C36.8092 21.5877 37.0452 21.6482 36.8711 21.8375C36.8711 21.8375 36.6344 22.1527 36.5372 22.3408C36.5372 22.3408 36.5092 22.5016 36.2864 22.4674C36.2864 22.4674 35.9774 22.3143 35.8029 22.8891C35.8029 22.8891 35.6437 23.1764 35.3738 23.2683C35.3738 23.2683 35.1212 23.3526 34.8844 23.2196C34.8844 23.2196 33.741 22.7999 33.5421 22.6511C33.5421 22.6511 33.2947 22.5127 33.0987 22.5792C33.0987 22.5792 32.756 22.661 32.6148 22.3904L32.2604 21.8421C32.2604 21.8421 32.1823 21.7071 32.1933 21.5374C32.1933 21.5374 32.161 21.3694 32.3029 21.1986C32.3029 21.1986 32.4369 21.0571 32.4579 20.9546L32.7106 20.3609C32.7106 20.3609 32.813 20.2024 32.9252 20.1371L33.2627 20.1618C33.2627 20.1618 33.0304 20.7549 32.8603 20.9966C32.8603 20.9966 32.6303 21.3483 32.642 21.5719C32.642 21.5719 32.6574 21.7287 32.7191 21.794C32.7191 21.794 32.7969 21.9186 32.8284 21.9791C32.8284 21.9791 32.9301 22.2009 33.0134 22.2502C33.0134 22.2502 33.1567 22.335 33.1917 22.3384C33.1917 22.3384 33.2543 22.3558 33.2074 22.2439C33.2074 22.2439 33.019 21.8462 33.031 21.6336C33.031 21.6336 32.9946 21.412 33.1511 21.2823C33.1511 21.2823 33.5187 20.7024 33.5717 20.5291C33.5717 20.5291 33.6865 20.2972 33.748 20.2574C33.748 20.2574 33.8764 20.0886 33.6692 20.0097C33.6692 20.0097 33.1531 19.8931 33.0607 19.8298C33.0607 19.8298 32.8125 19.7547 32.6512 19.2378C32.6512 19.2378 32.4293 18.6349 32.4324 18.2628C32.4324 18.2628 31.9973 19.1017 32.6914 19.9548C32.6914 19.9548 32.1423 20.1167 31.9151 19.9548C31.9151 19.9548 31.2312 19.8548 31.0987 19.8184C31.0987 19.8184 30.9271 19.7769 31.025 19.8989C31.025 19.8989 31.2312 20.1923 31.249 20.3846C31.249 20.3846 31.262 20.5376 31.3877 20.6273C31.3877 20.6273 31.7765 20.8996 31.8104 21.1603C31.8104 21.1603 31.8937 21.4113 31.7218 21.3512C31.7218 21.3512 31.4892 21.2434 31.4069 21.352C31.4069 21.352 31.3828 21.3634 31.4726 21.4641C31.4726 21.4641 31.7061 21.6673 31.7234 21.94C31.7234 21.94 31.6802 22.2547 31.5976 22.3559C31.5976 22.3559 31.4926 22.5017 31.3263 22.4554C31.3263 22.4554 31.2824 22.4198 31.2024 22.4438C31.2024 22.4438 31.1203 22.4435 30.9055 22.3692C30.9055 22.3692 30.58 22.2797 30.4712 22.2413C30.4712 22.2413 30.0568 22.0931 29.8522 22.1034C29.8522 22.1034 29.7193 22.0888 29.5498 22.1227C29.5498 22.1227 29.0314 22.1815 28.6861 21.7998C28.6861 21.7998 28.4232 21.5914 28.3343 21.7937C28.3343 21.7937 27.7037 22.6397 26.6831 22.4168C26.6831 22.4168 27.4955 22.0829 27.7059 21.6281C27.7059 21.6281 27.7337 21.2419 28.1591 20.7057C28.1591 20.7057 28.2889 20.5277 28.1635 20.4814C28.1635 20.4814 28.0911 20.4272 27.9325 20.5862C27.9325 20.5862 27.5289 20.9738 27.3828 21.3286C27.3828 21.3286 26.8807 22.0869 26.1577 21.832C26.1577 21.832 26.7252 21.613 26.992 21.2045C26.992 21.2045 27.1569 20.6517 27.7117 20.2404C27.7117 20.2404 27.7333 19.6191 27.992 19.2699C27.992 19.2699 28.1239 18.6864 28.1591 18.5501C28.1591 18.5501 28.2984 18.0376 28.2975 17.8961C28.2975 17.8961 28.2514 17.2267 28.6831 16.7056C28.6831 16.7056 28.9721 16.1482 29.4229 15.7598C29.4229 15.7598 29.765 15.337 30.0193 15.078C30.0193 15.078 30.3543 14.6855 31.0844 14.1733C31.0844 14.1733 31.4148 13.933 31.6567 13.6746C31.6567 13.6746 32.9443 12.7477 33.8749 13.4912C33.8749 13.4912 34.5174 13.9283 35.0542 14.0636C35.0542 14.0636 36.1566 14.192 36.6265 14.9573C36.6265 14.9573 36.6667 15.0987 37.1112 15.1526C37.1112 15.1526 38.0874 15.0347 38.8064 15.9948C38.8064 15.9948 39.1403 16.3208 39.8016 16.4001C39.8016 16.4001 40.8792 16.2897 41.5811 17.1163C41.5811 17.1163 43.3524 18.6614 44.4087 17.6594C44.4087 17.6594 44.9557 17.1413 44.3302 16.2032C44.3302 16.2032 43.9335 15.7243 43.2568 15.224C43.2568 15.224 42.7072 14.8371 42.9592 14.2356C42.9592 14.2356 43.0921 13.6544 43.9152 13.639C43.9152 13.639 44.948 13.4395 45.3655 12.918C45.3655 12.918 45.8321 14.5604 44.0016 14.533C44.0016 14.533 43.5245 14.6036 43.6911 14.9822C43.6911 14.9822 43.925 15.3061 44.2388 15.4239C44.2388 15.4239 44.7909 15.6655 45.0406 16.4694C45.0406 16.4694 45.5983 17.8768 44.2373 18.4201C43.7145 18.6009 43.1099 18.5477 42.5711 18.4539ZM45.1904 21.7704C45.1164 21.7087 45.0083 21.6739 44.9126 21.6964C44.6958 21.743 44.827 21.9305 44.827 21.9305C44.9148 22.0946 45.201 22.3713 45.201 22.3713C45.4558 22.5619 45.6571 22.3349 45.6571 22.3349C45.8454 22.149 45.5999 22.0591 45.5999 22.0591C45.4575 22.0011 45.1904 21.7704 45.1904 21.7704ZM45.7358 22.6501C45.7358 22.6501 45.6571 22.7085 45.699 22.8238C45.699 22.8238 45.901 23.3768 45.8917 23.5624C45.8917 23.5624 46.3391 23.6423 46.4006 23.4216C46.4006 23.4216 46.4126 23.3365 46.3398 23.213C46.3398 23.213 46.264 23.0978 46.2443 22.887C46.2443 22.887 46.2511 22.3566 45.9075 22.4971C45.8392 22.5353 45.7854 22.5908 45.7358 22.6501ZM29.9773 21.5278C30.0562 21.5259 30.0764 21.4971 30.0667 21.4104C30.0137 21.1695 29.8209 21.0655 29.8209 21.0655C29.4585 20.849 29.4143 21.0658 29.4143 21.0658C29.3482 21.4525 29.6537 21.5012 29.6537 21.5012C29.7148 21.5222 29.9773 21.5278 29.9773 21.5278ZM28.8845 19.8007C28.8777 19.6192 28.8622 19.2159 29.0469 19.0718C29.1152 19.0177 29.3841 18.7229 29.3841 18.7229C29.4251 18.6515 29.4566 18.6471 29.4566 18.6471C29.5118 18.6417 29.5838 18.7707 29.5838 18.7707C29.7752 19.1406 29.9667 19.0955 29.9667 19.0955C29.9682 19.0281 29.9228 18.9528 29.9228 18.9528C29.8303 18.7731 29.7387 18.593 29.648 18.4124C29.6277 18.3633 29.6098 18.3134 29.5943 18.2627C29.4093 17.9759 29.235 18.1942 29.235 18.1942C29.1573 18.3461 28.7425 18.841 28.7425 18.841C28.6877 18.9053 28.6525 18.9842 28.6412 19.068C28.5455 19.7458 28.8845 19.8007 28.8845 19.8007ZM32.7053 15.7089C32.762 15.607 32.7386 15.5031 32.6816 15.404C32.5533 15.2073 32.4336 15.4219 32.4336 15.4219C31.9902 16.0398 32.3175 16.9649 32.3175 16.9649C32.3628 16.1134 32.7053 15.7089 32.7053 15.7089Z" fill="white"/>
<path d="M0 28.5139V39.8489H2.28723V30.6772H3.36482C3.36482 30.6772 5.047 30.6015 5.047 32.1328C5.047 33.6641 3.55353 33.626 3.55353 33.626H3.00528V36.235L5.29295 39.8492H7.97685L4.78241 35.2145C4.78241 35.2145 7.40996 34.9877 7.40996 32.1331C7.40996 29.279 5.42503 28.5143 2.77885 28.5143L0 28.5139ZM33.4405 33.8157C33.4405 33.8157 34.4421 33.0366 34.4421 31.5601C34.4421 30.0829 33.3692 28.7513 31.0848 28.7513H27.259V39.8491H31.9713C31.9713 39.8491 35.3488 39.8108 35.3488 36.7586C35.349 34.9868 34.6611 34.3082 33.4405 33.8157ZM31.5973 37.9175H29.5465V30.6864H30.6426C30.6426 30.6864 32.1322 30.5746 32.1322 31.8741C32.1322 33.1737 30.9473 33.0591 30.9473 33.0591H30.2647V35.0072H31.5968C31.946 35.0072 33.0585 35.1765 33.0585 36.4567C33.0583 37.7366 31.5973 37.9175 31.5973 37.9175ZM47.8638 28.291H50V39.8491H47.8638V28.291ZM44.1873 28.291H46.3517V39.8491H44.1873V28.291ZM35.9926 33.0783H38.1851V36.9532C38.1851 36.9532 38.2614 38.2581 39.4897 38.2581C40.7179 38.2581 40.6998 36.9532 40.6998 36.9532V33.0966H42.911V37.086C42.911 37.086 43.1948 40.205 39.5462 40.205C35.898 40.205 35.9926 37.4641 35.9926 36.9726V33.0783ZM21.4559 28.291V33.5322C21.4559 33.5322 20.3973 32.7195 19.1867 32.7195C17.9774 32.7195 15.9358 33.5701 15.9358 36.2541C15.9358 38.9383 17.6751 39.9597 19.1683 39.9597C20.6619 39.9597 21.4936 38.9765 21.4936 38.9765V39.8494H23.6482V28.2912L21.4559 28.291ZM19.7921 38.0685C19.6785 38.0685 18.2608 38.0876 18.2608 36.3486C18.2608 34.6092 19.8107 34.5526 19.8107 34.5526C19.8107 34.5526 21.5501 34.6092 21.5501 36.3106C21.5501 38.012 19.9054 38.0685 19.7921 38.0685ZM11.6256 32.7192C15.2929 32.7192 15.1416 36.2921 15.1416 36.2921V36.8589H10.1702C10.1702 37.6714 10.8505 38.3711 11.7769 38.3711C12.7031 38.3711 13.1757 37.4827 13.1757 37.4827L14.9335 38.352C14.1208 39.5812 13.0244 40.0722 11.7959 40.0722C7.97715 40.0722 7.90157 36.8967 7.90157 36.4999C7.90157 36.1027 7.95866 32.7192 11.6256 32.7192ZM10.2077 35.5543H12.9302C12.9302 35.5543 12.8168 34.2693 11.5881 34.2693C10.3593 34.2692 10.2077 35.5543 10.2077 35.5543Z" fill="white"/>
</svg>
