<svg width="50" height="40" viewBox="0 0 50 40" fill="none" xmlns="http://www.w3.org/2000/svg">
<g clip-path="url(#clip0_1718_2554)">
<path d="M10.379 25.867C10.379 26.3704 10.9987 26.9512 10.9987 27.2223C10.9987 27.5708 10.6889 27.5708 10.6889 27.5708C10.6889 27.5708 7.28065 27.5708 6.15749 27.5708C6.0413 27.5708 5.84766 27.4546 5.84766 27.261C5.84766 26.9125 6.46733 26.7963 6.46733 25.7895C6.46733 25.0925 6.46733 15.9541 6.46733 15.9541C6.46733 15.2571 5.92512 15.0635 5.92512 14.715C5.92512 14.444 6.0413 14.2891 6.31241 14.2891C7.97779 14.2891 12.8965 14.2891 12.8965 14.2891C15.9174 14.2891 16.6532 16.7673 16.6532 18.5098C16.6532 21.6076 14.4844 23.1177 12.6641 23.1177C11.6958 23.1177 10.6889 22.6143 10.6889 22.0722C10.6889 22.0335 10.7276 21.9173 10.8438 21.8399C11.1536 21.685 12.819 21.1816 12.7803 18.5485C12.7415 16.4575 12.0057 15.4894 11.2698 15.4894C10.6501 15.4894 10.4178 15.8379 10.4178 16.7673C10.4178 17.6966 10.379 24.6666 10.379 25.867Z" fill="white"/>
<path d="M18.7454 16.1473C19.7935 16.1473 20.6432 15.4712 20.6432 14.6371C20.6432 13.8031 19.7935 13.127 18.7454 13.127C17.6973 13.127 16.8477 13.8031 16.8477 14.6371C16.8477 15.4712 17.6973 16.1473 18.7454 16.1473Z" fill="white"/>
<path d="M30.7112 25.1318H29.2007C28.8134 25.1318 28.581 24.7059 28.8134 24.3961L33.035 17.9682C33.0737 17.8908 33.035 17.7746 32.9188 17.7746C31.8731 17.8133 31.447 17.9295 31.0985 18.2393C30.4013 18.7814 30.2464 19.943 29.7817 19.943C29.5106 19.943 29.3944 19.7882 29.3944 19.4784C29.3944 19.2073 29.3944 17.5423 29.3944 17.1551C29.3944 16.7678 29.5106 16.5742 29.8591 16.5742C30.2077 16.5742 36.5981 16.5742 36.5981 16.5742C36.9079 16.5742 37.1403 16.8066 37.1403 17.1163C37.1403 17.3874 36.4044 18.4329 36.2882 18.6265C36.0946 18.9363 32.7251 24.125 32.7251 24.125C35.1264 24.125 35.8235 25.7514 37.7212 25.7514C38.5733 25.7514 38.5733 25.519 39.038 25.519C39.2317 25.519 39.3479 25.6352 39.3479 25.8288C39.3479 26.1773 38.1085 27.6488 36.3657 27.6488C34.313 27.61 33.2673 25.1318 30.7112 25.1318Z" fill="white"/>
<path d="M30.9439 25.4792C30.5179 25.4792 30.4792 25.7116 29.6271 25.7116C27.7294 25.7116 27.0322 24.0852 24.631 24.0852C24.631 24.0852 28.0005 18.8577 28.1941 18.5867C28.3103 18.3931 29.0462 17.3476 29.0462 17.0765C29.0462 16.7667 28.8138 16.5344 28.504 16.5344C28.504 16.5344 22.1136 16.5344 21.765 16.5344C21.4164 16.5344 21.3002 16.728 21.3002 17.1152C21.3002 17.5025 21.3002 19.1675 21.3002 19.4386C21.3002 19.7484 21.4164 19.9032 21.6875 19.9032C22.1523 19.9032 22.3072 18.7803 23.0043 18.1995C23.3529 17.9284 23.7789 17.7735 24.8246 17.7348C24.9408 17.7348 24.9796 17.851 24.9408 17.9284L20.758 24.3176C20.6031 24.1627 20.4869 23.8916 20.4869 23.4657C20.4869 23.4657 20.4869 17.5412 20.4869 17.154C20.4869 16.728 20.332 16.4957 20.0222 16.4957C19.6736 16.4957 17.5435 16.4957 17.3111 16.4957C17.0787 16.4957 16.7689 16.457 16.7689 16.7667C16.7689 17.1152 17.3111 17.2701 17.3111 18.122C17.3111 18.7416 17.3111 22.1104 17.3111 23.3108C17.3111 24.3176 16.6914 24.1627 16.6914 24.7048C16.6914 24.9758 17.0012 25.092 17.0012 25.092H20.758C20.758 25.092 20.8355 25.092 20.9129 25.0533C20.9517 25.092 21.0291 25.092 21.1066 25.092H22.617C25.1732 25.092 26.2189 27.5702 28.2716 27.5702C30.0144 27.5702 31.2538 26.0988 31.2538 25.7503C31.2925 25.5954 31.1376 25.4792 30.9439 25.4792Z" fill="white"/>
<path d="M22.9274 28.2277C22.9274 27.7243 23.5471 27.1434 23.5471 26.8724C23.5471 26.4852 23.2372 26.5239 23.2372 26.5239C23.2372 26.5239 19.829 26.5239 18.7059 26.5239C18.5897 26.5239 18.396 26.6401 18.396 26.8724C18.396 27.2209 19.0157 27.3371 19.0157 28.3438C19.0157 28.3438 19.0157 30.1638 19.0157 32.216C18.7059 32.0224 18.2798 31.8288 17.7376 31.8288C17.4665 31.8288 17.0792 31.9063 16.5757 32.0224C16.5757 29.9702 16.5757 28.1502 16.5757 28.1502C16.5757 27.5307 17.118 27.2209 17.118 26.9111C17.118 26.4464 16.6145 26.4852 16.6145 26.4852C16.6145 26.4852 13.5936 26.4852 12.5866 26.4852C12.3155 26.4852 12.1606 26.6013 12.1606 26.8337C12.1606 27.2596 12.7028 27.2596 12.7028 28.1502C12.7028 28.5762 12.7028 30.7059 12.7028 32.913C12.0444 33.0292 11.386 33.1067 10.7663 33.1067C8.09395 33.1067 7.47427 31.8288 7.12571 31.8288C6.4673 31.8288 6.42857 35.43 9.56567 35.43C10.4565 35.43 11.5796 35.1202 12.7028 34.733C12.7028 36.5916 12.7028 38.1018 12.7028 38.1018C12.7028 38.6052 12.0831 39.186 12.0831 39.4571C12.0831 39.8443 12.3929 39.8056 12.3929 39.8056C12.3929 39.8056 15.8012 39.8056 16.9243 39.8056C17.0405 39.8056 17.2341 39.6894 17.2341 39.4571C17.2341 39.1086 16.6145 38.9924 16.6145 37.9856C16.6145 37.6759 16.6145 35.5462 16.6145 33.3777C17.0405 33.2615 17.4278 33.1841 17.7764 33.1841C18.7446 33.1841 19.0157 33.8037 19.0544 34.1909C19.0544 36.0883 19.0544 37.792 19.0544 38.1793C19.0544 39.0699 18.5122 39.0699 18.5122 39.4958C18.5122 39.7281 18.7059 39.8443 18.9383 39.8443C19.9452 39.8443 22.9661 39.8443 22.9661 39.8443C22.9661 39.8443 23.4696 39.8443 23.4696 39.4184C23.4696 39.1473 22.9274 38.8375 22.9274 38.1793V28.2277Z" fill="white"/>
<path d="M23.9338 32.7595C23.9338 31.8689 23.5078 31.8689 23.5078 31.5591C23.5078 31.3655 23.6627 31.2106 23.8564 31.2106C24.3211 31.2106 25.483 31.2106 25.9478 31.2106C26.4125 31.2106 27.1097 31.2106 27.1097 31.8302C27.1097 32.4497 27.1097 36.6317 27.1097 37.1351C27.1097 37.6385 27.3033 38.258 27.923 38.258C28.5427 38.258 29.0849 37.9095 29.0849 37.1351C29.0849 36.3994 29.0849 33.6501 29.0849 33.0693C29.0849 31.8689 28.5814 31.9463 28.5814 31.5204C28.5814 31.3268 28.6976 31.1719 28.8912 31.1719C29.3947 31.1719 31.0214 31.1719 31.3699 31.1719C31.9896 31.1719 32.222 31.3655 32.222 31.5591C32.222 31.9463 32.222 37.6385 32.222 38.1031C32.222 38.955 32.7642 39.1099 32.7642 39.4971C32.7642 39.7295 32.4931 39.7682 32.4931 39.7682C32.4931 39.7682 30.5179 39.7682 29.9757 39.7682C29.2011 39.7682 29.356 39.0325 29.356 39.0325C29.356 39.0325 28.3878 40.0005 26.6449 40.0005C24.5148 40.0005 23.8564 38.5678 23.8564 37.7934C23.9338 36.864 23.9338 32.7595 23.9338 32.7595Z" fill="white"/>
<path d="M44.4998 22.6132C44.4998 21.103 44.4998 18.5861 44.4998 18.5861C44.4998 17.0759 42.8345 16.3789 40.898 16.3789C39.0002 16.3789 37.0637 16.921 37.0637 18.3537C37.0637 19.012 37.606 19.4767 38.1869 19.4767C38.8453 19.4767 39.3101 18.8958 39.4263 18.4699C39.6199 17.7729 40.1234 17.5793 40.472 17.5793C40.9367 17.5793 41.4402 17.9665 41.4402 18.5473C41.4402 19.5154 40.3945 19.7477 39.039 20.0575C37.0637 20.5222 36.3279 21.4128 36.3279 22.8455C36.3279 24.1621 37.4898 25.285 39.2326 25.285C40.3945 25.285 41.1304 24.7816 41.4402 24.5106C41.5177 24.4331 41.6338 24.4331 41.7113 24.5106C41.9437 24.7816 42.4859 25.2463 43.4541 25.2463C44.8484 25.2463 45.3519 24.3944 45.3519 24.0846C45.3519 23.5812 44.4998 24.317 44.4998 22.6132ZM41.5177 22.5357C41.5177 23.1166 41.0529 23.5038 40.5107 23.5038C40.1234 23.5038 39.5424 23.1553 39.5424 22.5357C39.5424 21.4128 40.9754 20.7158 41.1691 20.6383C41.4015 20.5609 41.5177 20.4835 41.5177 20.6383C41.5177 20.8707 41.5177 21.9549 41.5177 22.5357Z" fill="white"/>
<path d="M36.4448 32.3336C36.8708 32.3336 37.4905 32.3336 37.6454 32.3336C37.9165 32.3336 38.0327 32.0626 38.0327 31.7915C38.0327 31.5205 37.9165 31.2107 37.6454 31.2107C37.5292 31.2107 36.8708 31.2107 36.4448 31.2107C36.4448 30.3975 36.4448 29.5844 36.4448 29.352C36.4448 28.9648 36.0962 28.9648 35.8251 29.1584C35.4766 29.4295 33.2302 31.1333 32.8429 31.3656C32.4944 31.6366 32.3782 32.3336 33.3464 32.3336C33.3464 33.4179 33.3464 37.019 33.3464 37.5224C33.3464 38.9939 34.0823 39.9619 35.4766 39.9619C36.561 39.9619 37.1807 39.536 37.6067 38.839C37.8778 38.3743 37.8391 37.9871 37.568 37.9871C37.3356 37.9871 37.3356 38.1032 37.0645 38.1032C36.6772 38.1032 36.4835 37.7547 36.4835 37.3675C36.4835 36.9803 36.4835 33.263 36.4835 32.7596C36.4448 32.7209 36.4448 32.5273 36.4448 32.3336Z" fill="white"/>
<path d="M37.877 39.1856C37.877 38.8371 38.1481 38.5273 38.5354 38.5273C38.8839 38.5273 39.1938 38.7984 39.1938 39.1856C39.1938 39.5341 38.9227 39.8439 38.5354 39.8439C38.1481 39.8439 37.877 39.5341 37.877 39.1856ZM39.0388 39.1856C39.0388 38.9146 38.8065 38.6822 38.5354 38.6822C38.2642 38.6822 38.0319 38.9146 38.0319 39.1856C38.0319 39.4567 38.2642 39.689 38.5354 39.689C38.8065 39.7277 39.0388 39.4954 39.0388 39.1856ZM38.2642 38.8758H38.5741C38.729 38.8758 38.8065 38.9533 38.8065 39.0695C38.8065 39.1856 38.729 39.2631 38.6128 39.2631L38.7677 39.4954H38.6128L38.4192 39.1856H38.4966C38.5741 39.1856 38.6515 39.1856 38.6515 39.0695C38.6515 38.992 38.5741 38.992 38.4966 38.992H38.3804V39.4954H38.2642V38.8758Z" fill="white"/>
<path fill-rule="evenodd" clip-rule="evenodd" d="M50 12.12V11.5005L37.3741 6.04066L34.8954 0H15.1046L12.6259 6.04066L0 11.5005V12.12H50Z" fill="white"/>
</g>
<defs>
<clipPath id="clip0_1718_2554">
<rect width="50" height="40" fill="white"/>
</clipPath>
</defs>
</svg>
