<svg width="20" height="20" viewBox="0 0 20 20" fill="none" xmlns="http://www.w3.org/2000/svg">
<path d="M9.98273 0C4.72031 0 0.409375 4.04719 0 9.19011L5.36906 11.4043C5.83788 11.0835 6.39467 10.912 6.96484 10.9127C7.01813 10.9127 7.07078 10.9142 7.12266 10.917L9.51062 7.46458V7.41624C9.51062 5.33883 11.2052 3.64828 13.2882 3.64828C15.3712 3.64828 17.0657 5.33883 17.0657 7.41624C17.0657 9.49358 15.3712 11.1848 13.2882 11.1848C13.2593 11.1848 13.2312 11.1841 13.2024 11.1834L9.79672 13.6063C9.79891 13.6513 9.80031 13.6961 9.80031 13.7403C9.80031 15.3004 8.5282 16.5693 6.96484 16.5693C5.5925 16.5693 4.4443 15.5919 4.18484 14.2981L0.344531 12.7144C1.53383 16.9084 5.39711 19.9831 9.98273 19.9831C15.5154 19.9831 20 15.5092 20 9.99157C20 4.47328 15.5154 0 9.98273 0ZM6.2775 15.1605L5.04711 14.6533C5.26484 15.1064 5.6425 15.4854 6.14344 15.6935C7.22602 16.1437 8.47437 15.6315 8.92562 14.5507C9.14409 14.0311 9.14538 13.447 8.92922 12.9264C8.71297 12.4021 8.3043 11.9932 7.78031 11.7752C7.25922 11.5593 6.70133 11.5671 6.21117 11.7517L7.48266 12.276C8.28125 12.608 8.65891 13.5227 8.32594 14.3192C7.99367 15.1156 7.07609 15.4926 6.2775 15.1605ZM15.8054 7.41624C15.8054 6.0321 14.6759 4.90509 13.2884 4.90509C11.9002 4.90509 10.7708 6.0321 10.7708 7.41624C10.7708 8.80047 11.9002 9.92678 13.2884 9.92678C14.6759 9.92678 15.8054 8.80047 15.8054 7.41624ZM11.4015 7.412C11.4015 6.37047 12.2484 5.52631 13.2921 5.52631C14.3365 5.52631 15.1834 6.37047 15.1834 7.412C15.1834 8.45352 14.3365 9.29776 13.292 9.29776C12.2484 9.29776 11.4014 8.45352 11.4014 7.41207L11.4015 7.412Z" fill="white"/>
</svg>
