<svg width="16" height="16" viewBox="0 0 16 16" fill="none" xmlns="http://www.w3.org/2000/svg">
<path fill-rule="evenodd" clip-rule="evenodd" d="M2 2.00234L5.48848 2L6.99961 4.19524C7.83132 5.4018 8.51542 6.39282 8.52245 6.39516C8.52948 6.39984 9.3729 5.42757 10.3967 4.23506C11.4205 3.0449 12.2757 2.05389 12.2944 2.03514C12.3225 2.00937 12.4256 2.00469 13.3417 2.01406L11.1675 4.54432C9.97032 5.93596 8.99102 7.07927 8.99102 7.0863C8.99102 7.09332 10.0476 8.63257 11.3362 10.5068C12.6248 12.3811 13.6907 13.9344 13.7025 13.9578C13.7235 13.9953 13.6322 13.9977 10.2444 14L8.65131 11.6806C7.77509 10.4037 7.04881 9.36353 7.03475 9.36822C7.0207 9.37056 6.11402 10.4155 3.0285 14H2.51308C2.02577 14 2 13.9977 2.0328 13.9578C2.05154 13.9367 3.08005 12.7419 4.31472 11.3057C5.55174 9.86724 6.5615 8.68177 6.5615 8.66771C6.5615 8.65365 5.55408 7.18001 4.32409 5.38774C3.0941 3.59547 2.06794 2.10308 2.04451 2.0656L2 2.00234ZM7.06755 8.02577L10.7153 13.2362C11.9992 13.248 12.2921 13.2409 12.2874 13.2269C12.285 13.2152 10.6427 10.8583 8.63959 7.99063L4.99649 2.77782C3.78993 2.77782 3.43616 2.78485 3.43147 2.79422C3.42679 2.80359 5.06208 5.15814 7.06755 8.02577Z" fill="white"/>
</svg>
