<svg width="111" height="16" viewBox="0 0 111 16" fill="none" xmlns="http://www.w3.org/2000/svg">
<g clip-path="url(#clip0_1945_2954)">
<path d="M98.9528 3.10302H102.924L102.937 15.3192C102.937 15.4763 103.064 15.6056 103.222 15.6056L105.496 15.6039C105.655 15.6039 105.782 15.4763 105.782 15.3175L105.768 3.10302H110.749C110.896 3.10302 110.979 2.93156 110.885 2.8167L109.181 0.673964C109.038 0.494066 108.822 0.390181 108.594 0.389335H98.9528C98.7945 0.389335 98.6674 0.51687 98.6674 0.675653V2.81839C98.6674 2.9738 98.7945 3.10302 98.9528 3.10302ZM3.09662 15.3209L14.7472 0.675653C14.839 0.560788 14.7565 0.389335 14.61 0.389335H11.6969C11.4688 0.389335 11.2515 0.494909 11.1093 0.673964L2.84404 11.0625V0.673964C2.84404 0.51518 2.71691 0.387647 2.55947 0.387647H0.284572C0.127131 0.387647 0 0.51518 0 0.673964V15.3192C0 15.478 0.127131 15.6056 0.284572 15.6056H2.50979C2.73796 15.6056 2.95349 15.5008 3.09662 15.3209ZM11.3105 15.3209L15.3181 10.2838L19.3257 15.3209C19.4679 15.5008 19.6852 15.6056 19.9142 15.6056H22.1385C22.2968 15.6056 22.424 15.478 22.424 15.3192V0.673964C22.424 0.51687 22.2968 0.387647 22.1385 0.387647H20.2728C19.8157 0.387647 19.3829 0.596261 19.0966 0.955214L7.67166 15.3175C7.57989 15.4324 7.6624 15.6039 7.8089 15.6039H10.722C10.9518 15.6055 11.1674 15.5008 11.3105 15.3209ZM19.5782 4.62075V11.3682L16.8942 7.99491L19.5782 4.62075ZM84.6282 15.3175L72.9785 0.672276C72.8362 0.493221 72.6198 0.388492 72.3916 0.387647H70.1647C70.0073 0.387647 69.8802 0.51518 69.8802 0.673964V15.3192C69.8802 15.478 70.0073 15.6056 70.1647 15.6056H72.3899C72.6181 15.6056 72.8353 15.5008 72.9768 15.3209L76.9844 10.2838L80.9911 15.3209C81.1342 15.5008 81.3498 15.6056 81.5788 15.6056H84.4918C84.6383 15.6056 84.72 15.4341 84.6282 15.3175ZM75.4057 7.99491L72.7208 11.3699V4.62075L75.4057 7.99491ZM43.3459 0.00842285C38.9544 0.00842285 35.3947 3.58444 35.3947 7.9966C35.3947 12.4088 38.9544 15.9856 43.3459 15.9856C47.7382 15.9856 51.2979 12.4088 51.2979 7.9966C51.2996 3.58444 47.7382 0.00842285 43.3459 0.00842285ZM43.3459 13.2702C40.5246 13.2702 38.2388 10.9088 38.2388 7.9966C38.2388 5.08444 40.5246 2.72126 43.3459 2.72126C46.168 2.72126 48.4539 5.08275 48.4539 7.9966C48.4556 10.9088 46.168 13.2702 43.3459 13.2702ZM93.8482 0.673964V11.0625L85.583 0.672276C85.4399 0.493221 85.2243 0.388492 84.9953 0.387647H82.7676C82.611 0.387647 82.483 0.51518 82.483 0.673964V7.7314C82.483 7.90285 82.5403 8.06923 82.648 8.20353L85.0147 11.179C85.1191 11.3099 85.3287 11.2356 85.3287 11.0692V4.92734L93.5956 15.3209C93.7379 15.5008 93.9543 15.6056 94.1824 15.6056H96.4077C96.5651 15.6056 96.6922 15.478 96.6922 15.3192V0.673964C96.6922 0.51687 96.5651 0.387647 96.4077 0.387647H94.1328C93.9753 0.387647 93.8482 0.51687 93.8482 0.673964ZM66.0561 3.84795V0.673964C66.0561 0.51518 65.929 0.387647 65.7715 0.387647H54.1293C53.9719 0.387647 53.8448 0.51518 53.8448 0.673964V15.3192C53.8448 15.478 53.9719 15.6056 54.1293 15.6056H56.4042C56.5617 15.6056 56.6888 15.478 56.6888 15.3192V3.10471H63.2121L58.8088 8.64187C58.7271 8.74491 58.7271 8.89356 58.8088 8.99913L63.8393 15.3226C63.9824 15.5025 64.198 15.6072 64.427 15.6072H67.34C67.4865 15.6072 67.5682 15.4358 67.4764 15.3209L62.3062 8.82261L65.8903 4.32346C65.9963 4.18579 66.0561 4.0194 66.0561 3.84795ZM26.1234 15.6056H32.874C33.1021 15.6056 33.3194 15.5008 33.4608 15.3209L35.1657 13.1765C35.2575 13.0616 35.1758 12.8902 35.0293 12.8902H28.6829V0.673964C28.6829 0.51518 28.5557 0.387647 28.3983 0.387647H26.1234C25.966 0.387647 25.8388 0.51518 25.8388 0.673964V15.3192C25.8388 15.4763 25.9676 15.6056 26.1234 15.6056Z" fill="white"/>
</g>
<defs>
<clipPath id="clip0_1945_2954">
<rect width="111" height="16" fill="white"/>
</clipPath>
</defs>
</svg>
