<svg width="31" height="25" viewBox="0 0 31 25" fill="none" xmlns="http://www.w3.org/2000/svg">
<path d="M30.2747 2.91936C29.1613 3.41269 27.9653 3.74603 26.708 3.89669C28.0053 3.12041 28.976 1.89864 29.4387 0.459362C28.2199 1.18335 26.8859 1.69295 25.4947 1.96603C24.5592 0.967175 23.3201 0.305121 21.9697 0.0826548C20.6195 -0.139812 19.2335 0.0897481 18.0269 0.735695C16.8205 1.38164 15.8611 2.40784 15.2976 3.65496C14.734 4.90208 14.598 6.30036 14.9107 7.63269C12.4409 7.50868 10.0248 6.86676 7.81924 5.74856C5.61362 4.63037 3.66778 3.06091 2.108 1.14203C1.57466 2.06203 1.268 3.1287 1.268 4.26469C1.26741 5.28735 1.51924 6.29435 2.00117 7.19633C2.4831 8.09832 3.18021 8.86741 4.03066 9.43536C3.04437 9.40397 2.07982 9.13747 1.21733 8.65803V8.73803C1.21724 10.1723 1.71337 11.5626 2.62157 12.6727C3.52977 13.7829 4.79409 14.5446 6.2 14.8287C5.28505 15.0763 4.32578 15.1127 3.39466 14.9354C3.79133 16.1695 4.564 17.2487 5.60449 18.0219C6.64498 18.7951 7.90122 19.2237 9.19733 19.2474C6.9971 20.9746 4.27985 21.9115 1.48266 21.9074C0.987171 21.9075 0.492104 21.8786 0 21.8207C2.8393 23.6463 6.14445 24.6151 9.52 24.6114C20.9467 24.6114 27.1933 15.1474 27.1933 6.93936C27.1933 6.67269 27.1867 6.40336 27.1747 6.13669C28.3897 5.25799 29.4385 4.16988 30.272 2.92336L30.2747 2.91936Z" fill="white"/>
</svg>
