<svg width="16" height="16" viewBox="0 0 16 16" fill="none" xmlns="http://www.w3.org/2000/svg">
<path d="M13.7367 5.35026C14 6.27995 14 8.27214 14 8.27214C14 8.27214 14 10.2422 13.7367 11.194C13.6051 11.7253 13.1883 12.1237 12.6837 12.2565C11.7404 12.5 8.01097 12.5 8.01097 12.5C8.01097 12.5 4.2596 12.5 3.31627 12.2565C2.8117 12.1237 2.39488 11.7253 2.26325 11.194C2 10.2422 2 8.27214 2 8.27214C2 8.27214 2 6.27995 2.26325 5.35026C2.39488 4.81901 2.8117 4.39844 3.31627 4.26562C4.2596 4 8.01097 4 8.01097 4C8.01097 4 11.7404 4 12.6837 4.26562C13.1883 4.39844 13.6051 4.81901 13.7367 5.35026ZM6.78245 10.0651L9.89762 8.27214L6.78245 6.47917V10.0651Z" fill="white"/>
</svg>
